<svg>
<symbol id="heart" width="24.000000" height="24.000000" viewBox="0 0 24 24" fill="none" xmlns="http://www.w3.org/2000/svg" xmlns:xlink="http://www.w3.org/1999/xlink">
	<desc>
			Created with Pixso.
	</desc>
	<defs>
		<clipPath id="clip58_220">
			<rect id="Property 1=Default" width="24.000000" height="24.000000" fill="white" fill-opacity="0"/>
		</clipPath>
	</defs>
	<rect id="Property 1=Default" width="24.000000" height="24.000000" fill="#FFFFFF" fill-opacity="0"/>
	<g clip-path="url(#clip58_220)">
		<path d="M19.05 3.41C18.38 3.14 17.67 2.99 16.95 2.99C16.22 2.99 15.51 3.14 14.84 3.41C14.17 3.69 13.57 4.09 13.06 4.61L12 5.67L10.94 4.61C9.9 3.57 8.5 2.99 7.05 2.99C5.59 2.99 4.19 3.57 3.16 4.61C2.12 5.64 1.54 7.04 1.54 8.5C1.54 9.95 2.12 11.35 3.16 12.39L4.22 13.45L12 21.23L19.78 13.45L20.84 12.39C21.35 11.87 21.75 11.27 22.03 10.6C22.3 9.93 22.45 9.22 22.45 8.5C22.45 7.77 22.3 7.06 22.03 6.39C21.75 5.72 21.35 5.12 20.84 4.61C20.32 4.09 19.72 3.69 19.05 3.41Z" stroke="#101828" stroke-opacity="1.000000" stroke-width="2.300000" stroke-linejoin="round"/>
	</g>
</symbol>
<symbol id='heart-red' width="24.000000" height="24.000000" viewBox="0 0 24 24" fill="none" xmlns="http://www.w3.org/2000/svg" xmlns:xlink="http://www.w3.org/1999/xlink">
	<desc>
			Created with Pixso.
	</desc>
	<defs>
		<clipPath id="clip58_222">
			<rect id="Property 1=pressed" width="24.000000" height="24.000000" fill="white" fill-opacity="0"/>
		</clipPath>
	</defs>
	<rect id="Property 1=pressed" width="24.000000" height="24.000000" fill="#FFFFFF" fill-opacity="0"/>
	<g clip-path="url(#clip58_222)">
		<path id="Vector" d="M20.84 4.61C20.32 4.09 19.72 3.69 19.05 3.41C18.38 3.14 17.67 2.99 16.95 2.99C16.22 2.99 15.51 3.14 14.84 3.41C14.17 3.69 13.57 4.09 13.06 4.61L12 5.67L10.94 4.61C9.9 3.57 8.5 2.99 7.05 2.99C5.59 2.99 4.19 3.57 3.16 4.61C2.12 5.64 1.54 7.04 1.54 8.5C1.54 9.95 2.12 11.35 3.16 12.39L4.22 13.45L12 21.23L19.78 13.45L20.84 12.39C21.35 11.87 21.75 11.27 22.03 10.6C22.3 9.93 22.45 9.22 22.45 8.5C22.45 7.77 22.3 7.06 22.03 6.39C21.75 5.72 21.35 5.12 20.84 4.61Z" fill="#E44848" fill-opacity="1.000000" fill-rule="nonzero"/>
		<path id="Vector" d="M19.05 3.41C18.38 3.14 17.67 2.99 16.95 2.99C16.22 2.99 15.51 3.14 14.84 3.41C14.17 3.69 13.57 4.09 13.06 4.61L12 5.67L10.94 4.61C9.9 3.57 8.5 2.99 7.05 2.99C5.59 2.99 4.19 3.57 3.16 4.61C2.12 5.64 1.54 7.04 1.54 8.5C1.54 9.95 2.12 11.35 3.16 12.39L4.22 13.45L12 21.23L19.78 13.45L20.84 12.39C21.35 11.87 21.75 11.27 22.03 10.6C22.3 9.93 22.45 9.22 22.45 8.5C22.45 7.77 22.3 7.06 22.03 6.39C21.75 5.72 21.35 5.12 20.84 4.61C20.32 4.09 19.72 3.69 19.05 3.41Z" stroke="#E44848" stroke-opacity="1.000000" stroke-width="2.300000" stroke-linejoin="round"/>
	</g>
</symbol>
<symbol id="star" width="15.000000" height="14.000000" viewBox="0 0 15 14" fill="none" xmlns="http://www.w3.org/2000/svg" xmlns:xlink="http://www.w3.org/1999/xlink">
	<desc>
			Created with Pixso.
	</desc>
	<defs/>
	<path id="Rating" d="M6.55 -0.17L4.66 3.41C4.59 3.55 4.46 3.64 4.31 3.67L0.32 4.36C-0.08 4.43 -0.23 4.91 0.05 5.2L2.87 8.1C2.98 8.22 3.03 8.37 3 8.52L2.43 12.53C2.37 12.93 2.78 13.23 3.14 13.05L6.77 11.26C6.91 11.2 7.08 11.2 7.22 11.26L10.85 13.05C11.21 13.23 11.62 12.93 11.56 12.53L10.99 8.52C10.96 8.37 11.01 8.22 11.12 8.1L13.94 5.2C14.22 4.91 14.07 4.43 13.67 4.36L9.68 3.67C9.53 3.64 9.4 3.55 9.33 3.41L7.44 -0.17C7.25 -0.52 6.74 -0.52 6.55 -0.17Z" fill="#FFC531" fill-opacity="1.000000" fill-rule="evenodd"/>
	<path id="Rating" d="M4.66 3.41C4.59 3.55 4.46 3.64 4.31 3.67L0.32 4.36C-0.08 4.43 -0.23 4.91 0.05 5.2L2.87 8.1C2.98 8.22 3.03 8.37 3 8.52L2.43 12.53C2.37 12.93 2.78 13.23 3.14 13.05L6.77 11.26C6.91 11.2 7.08 11.2 7.22 11.26L10.85 13.05C11.21 13.23 11.62 12.93 11.56 12.53L10.99 8.52C10.96 8.37 11.01 8.22 11.12 8.1L13.94 5.2C14.22 4.91 14.07 4.43 13.67 4.36L9.68 3.67C9.53 3.64 9.4 3.55 9.33 3.41L7.44 -0.17C7.25 -0.52 6.74 -0.52 6.55 -0.17L4.66 3.41ZM5.73 3.97C5.48 4.44 5.03 4.76 4.51 4.85L1.83 5.32L3.73 7.27C4.1 7.65 4.27 8.17 4.19 8.69L3.8 11.39L6.24 10.19C6.72 9.95 7.27 9.95 7.75 10.19L10.19 11.39L9.8 8.69C9.72 8.17 9.89 7.65 10.26 7.27L12.16 5.32L9.48 4.85C8.96 4.76 8.51 4.44 8.26 3.97L7 1.57L5.73 3.97Z" fill="#FFC531" fill-opacity="1.000000" fill-rule="evenodd"/>
</symbol>
<symbol id="location" width="16.000000" height="16.000000" viewBox="0 0 16 16" fill="none" xmlns="http://www.w3.org/2000/svg" xmlns:xlink="http://www.w3.org/1999/xlink">
	<desc>
			Created with Pixso.
	</desc>
	<defs>
		<clipPath id="clip45_230">
			<rect id="map-pin" width="16.000000" height="16.000000" fill="white" fill-opacity="0"/>
		</clipPath>
	</defs>
	<rect id="map-pin" width="16.000000" height="16.000000" fill="#FFFFFF" fill-opacity="0"/>
	<g clip-path="url(#clip45_230)">
		<path id="Vector" d="M8 15.33C8 15.33 2 11.33 2 6.66C2 5.07 2.63 3.54 3.75 2.42C4.88 1.29 6.4 0.66 8 0.66C9.59 0.66 11.11 1.29 12.24 2.42C13.36 3.54 14 5.07 14 6.66C14 11.33 8 15.33 8 15.33Z" stroke="#101828" stroke-opacity="1.000000" stroke-width="1.300000" stroke-linejoin="round"/>
		<path id="Vector" d="M8 8.66C6.89 8.66 6 7.77 6 6.66C6 5.56 6.89 4.66 8 4.66C9.1 4.66 10 5.56 10 6.66C10 7.77 9.1 8.66 8 8.66Z" stroke="#101828" stroke-opacity="1.000000" stroke-width="1.300000" stroke-linejoin="round"/>
	</g>
</symbol>
<symbol id="users" width="20.000000" height="20.000000" viewBox="0 0 20 20" fill="none" xmlns="http://www.w3.org/2000/svg" xmlns:xlink="http://www.w3.org/1999/xlink">
	<desc>
			Created with Pixso.
	</desc>
	<defs>
		<clipPath id="clip11_7818">
			<rect id="Users" width="20.000000" height="20.000000" fill="white" fill-opacity="0"/>
		</clipPath>
	</defs>
	<rect id="Users" width="20.000000" height="20.000000" fill="#FFFFFF" fill-opacity="0"/>
	<g clip-path="url(#clip11_7818)">
		<path id="Vector" d="M5.66 15.08L2.91 15.08C2.75 15.08 2.66 15 2.58 14.91C2.5 14.83 2.41 14.66 2.5 14.5C3 13.08 4.25 12.25 5.66 12.25C7.41 12.25 8.83 10.75 8.83 9C8.83 7.25 7.41 5.58 5.66 5.58C3.91 5.58 2.5 7.08 2.5 8.91C2.5 9.75 2.83 10.58 3.33 11.16C2.25 11.75 1.41 12.66 0.91 13.91C0.75 14.5 0.83 15.25 1.25 15.83C1.66 16.41 2.25 16.75 2.91 16.75L5.66 16.75C6.16 16.75 6.5 16.41 6.5 15.91C6.5 15.41 6.16 15.08 5.66 15.08ZM4.16 8.91C4.16 8 4.83 7.33 5.66 7.33C6.5 7.33 7.16 8.08 7.16 8.91C7.16 9.83 6.5 10.5 5.66 10.5C4.83 10.5 4.16 9.75 4.16 8.91Z" fill="#101828" fill-opacity="1.000000" fill-rule="nonzero"/>
		<path id="Vector" d="M19.08 13.41C18.5 11.83 17.33 10.66 16 10C16.75 9.33 17.16 8.33 17.16 7.16C17.16 5 15.5 3.25 13.5 3.25C11.5 3.25 9.83 5 9.83 7.16C9.83 8.25 10.25 9.25 11 10C9.66 10.66 8.5 11.83 7.91 13.41C7.5 14.16 7.66 15 8.08 15.66C8.5 16.33 9.25 16.66 10 16.66L16.91 16.66C17.66 16.66 18.41 16.25 18.83 15.66C19.33 15 19.41 14.16 19.08 13.41ZM11.41 7.25C11.41 6 12.33 5 13.41 5C14.5 5 15.41 6 15.41 7.25C15.41 8.5 14.5 9.5 13.41 9.5C12.33 9.5 11.41 8.41 11.41 7.25ZM17.41 14.75C17.33 14.83 17.16 15.08 16.91 15.08L10 15.08C9.66 15.08 9.5 14.83 9.5 14.75C9.41 14.66 9.25 14.33 9.41 14C10.08 12.25 11.75 11.08 13.5 11.08C15.25 11.08 16.91 12.25 17.58 14C17.66 14.33 17.5 14.66 17.41 14.75Z" fill="#101828" fill-opacity="1.000000" fill-rule="nonzero"/>
	</g>
</symbol>
<symbol id="transmission" width="20.000000" height="20.000000" viewBox="0 0 20 20" fill="none" xmlns="http://www.w3.org/2000/svg" xmlns:xlink="http://www.w3.org/1999/xlink">
	<desc>
			Created with Pixso.
	</desc>
	<defs>
		<clipPath id="clip11_7821">
			<rect id="Container" width="20.000000" height="20.000000" fill="white" fill-opacity="0"/>
		</clipPath>
	</defs>
	<rect id="Container" width="20.000000" height="20.000000" fill="#FFFFFF" fill-opacity="0"/>
	<g clip-path="url(#clip11_7821)">
		<path id="Vector" d="M14.16 17.5L15 17.5C15.44 17.5 15.86 17.32 16.17 17.01C16.49 16.69 16.66 16.27 16.66 15.83C16.66 15.39 16.49 14.96 16.17 14.65C15.86 14.34 15.44 14.16 15 14.16L14.16 14.16L14.16 17.5ZM14.16 9.16L15.41 9.16C15.74 9.16 16.06 9.03 16.3 8.8C16.53 8.56 16.66 8.24 16.66 7.91C16.66 7.58 16.53 7.26 16.3 7.03C16.06 6.79 15.74 6.66 15.41 6.66L14.16 6.66L14.16 10.83M2.98 5.34C3.3 5.65 3.72 5.83 4.16 5.83C4.6 5.83 5.03 5.65 5.34 5.34C5.65 5.03 5.83 4.6 5.83 4.16C5.83 3.72 5.65 3.3 5.34 2.98C5.03 2.67 4.6 2.5 4.16 2.5C3.72 2.5 3.3 2.67 2.98 2.98C2.67 3.3 2.5 3.72 2.5 4.16C2.5 4.6 2.67 5.03 2.98 5.34Z" stroke="#101828" stroke-opacity="1.000000" stroke-width="1.500000" stroke-linejoin="round" stroke-linecap="round"/>
		<path id="Vector" d="M4.16 5.83L4.16 8.33C4.16 8.55 4.25 8.76 4.41 8.92C4.56 9.07 4.77 9.16 5 9.16L7.5 9.16L10.83 9.16M7.5 9.16L7.5 15C7.5 15.22 7.58 15.43 7.74 15.58C7.9 15.74 8.11 15.83 8.33 15.83L10.83 15.83" stroke="#101828" stroke-opacity="1.000000" stroke-width="1.500000" stroke-linejoin="round"/>
	</g>
</symbol>
<symbol id="engine" width="20.000000" height="20.000000" viewBox="0 0 20 20" fill="none" xmlns="http://www.w3.org/2000/svg" xmlns:xlink="http://www.w3.org/1999/xlink">
	<desc>
			Created with Pixso.
	</desc>
	<defs>
		<clipPath id="clip2_2625">
			<rect id="Vertical container" width="20.000000" height="20.000000" fill="white" fill-opacity="0"/>
		</clipPath>
	</defs>
	<rect id="Vertical container" width="20.000000" height="20.000000" fill="#FFFFFF" fill-opacity="0"/>
	<g clip-path="url(#clip2_2625)">
		<path id="Vector" d="M16.47 6.02L16.48 6.01L13.38 2.91L12.5 3.8L14.25 5.55C13.47 5.85 12.91 6.6 12.91 7.5C12.91 7.77 12.97 8.04 13.07 8.29C13.18 8.55 13.33 8.77 13.52 8.97C13.91 9.36 14.44 9.58 15 9.58C15.3 9.58 15.57 9.51 15.83 9.4L15.83 15.41C15.83 15.63 15.74 15.84 15.58 16C15.43 16.16 15.22 16.25 15 16.25C14.77 16.25 14.56 16.16 14.41 16C14.25 15.84 14.16 15.63 14.16 15.41L14.16 11.66C14.16 11.22 13.99 10.8 13.67 10.48C13.36 10.17 12.94 10 12.5 10L11.66 10L11.66 4.16C11.66 3.72 11.49 3.3 11.17 2.98C10.86 2.67 10.44 2.5 10 2.5L5 2.5C4.55 2.5 4.13 2.67 3.82 2.98C3.5 3.3 3.33 3.72 3.33 4.16L3.33 17.5L11.66 17.5L11.66 11.25L12.91 11.25L12.91 15.41C12.91 15.96 13.13 16.49 13.52 16.88C13.91 17.28 14.44 17.5 15 17.5C15.27 17.5 15.54 17.44 15.79 17.34C16.05 17.23 16.27 17.08 16.47 16.88C16.66 16.69 16.82 16.46 16.92 16.21C17.02 15.96 17.08 15.69 17.08 15.41L17.08 7.5C17.08 6.92 16.85 6.4 16.47 6.02ZM10 11.25L10 15.83L5 15.83L5 10L10 10L10 11.25ZM10 8.33L5 8.33L5 4.16L10 4.16L10 8.33ZM15 8.33C14.77 8.33 14.56 8.24 14.41 8.08C14.25 7.93 14.16 7.72 14.16 7.5C14.16 7.27 14.25 7.06 14.41 6.91C14.56 6.75 14.77 6.66 15 6.66C15.22 6.66 15.43 6.75 15.58 6.91C15.74 7.06 15.83 7.27 15.83 7.5C15.83 7.72 15.74 7.93 15.58 8.08C15.43 8.24 15.22 8.33 15 8.33Z" fill="#101828" fill-opacity="1.000000" fill-rule="nonzero"/>
	</g>
</symbol>
<symbol id="kitchen" width="20.000000" height="20.000000" viewBox="0 0 20 20" fill="none" xmlns="http://www.w3.org/2000/svg" xmlns:xlink="http://www.w3.org/1999/xlink">
	<desc>
			Created with Pixso.
	</desc>
	<defs>
		<clipPath id="clip2_2631">
			<rect id="Horizontal container" width="20.000000" height="20.000000" fill="white" fill-opacity="0"/>
		</clipPath>
	</defs>
	<rect id="Horizontal container" width="20.000000" height="20.000000" fill="#FFFFFF" fill-opacity="0"/>
	<g clip-path="url(#clip2_2631)">
		<path id="Vector" d="M15.83 12.5L11.66 12.5C11.64 9.43 11.81 6.32 15.83 2.5L15.83 12.5L15.83 17.5L14.99 17.5L14.99 15M6.66 3.33L6.66 17.5M4.16 3.33L4.16 5.83C4.16 6.49 4.42 7.13 4.89 7.6C5.36 8.06 6 8.33 6.66 8.33C7.32 8.33 7.96 8.06 8.43 7.6C8.9 7.13 9.16 6.49 9.16 5.83L9.16 3.33" stroke="#101828" stroke-opacity="1.000000" stroke-width="1.500000" stroke-linejoin="round"/>
	</g>
</symbol>
<symbol id="bed" width="20.000000" height="20.000000" viewBox="0 0 20 20" fill="none" xmlns="http://www.w3.org/2000/svg" xmlns:xlink="http://www.w3.org/1999/xlink">
	<desc>
			Created with Pixso.
	</desc>
	<defs>
		<clipPath id="clip3_2658">
			<rect id="Container" width="20.000000" height="20.000000" fill="white" fill-opacity="0"/>
		</clipPath>
	</defs>
	<rect id="Container" width="20.000000" height="20.000000" fill="#FFFFFF" fill-opacity="0"/>
	<g clip-path="url(#clip3_2658)">
		<path id="Vector" d="M3.75 9.37L3.75 5.31C3.75 4.89 3.91 4.5 4.2 4.2C4.5 3.91 4.89 3.75 5.31 3.75L14.68 3.75C15.1 3.75 15.49 3.91 15.79 4.2C16.08 4.5 16.24 4.89 16.25 5.31L16.25 9.37L15 9.37L3.75 9.37ZM1.87 16.25L1.87 11.87C1.87 11.21 2.14 10.57 2.6 10.1C3.07 9.64 3.71 9.37 4.37 9.37L15.62 9.37C16.28 9.37 16.92 9.64 17.39 10.1C17.85 10.57 18.12 11.21 18.12 11.87L18.12 16.25" stroke="#101828" stroke-opacity="1.000000" stroke-width="1.400000" stroke-linejoin="round" stroke-linecap="round"/>
		<path id="Vector" d="M1.87 16.25L1.87 15.93C1.87 15.68 1.97 15.45 2.15 15.27C2.32 15.09 2.56 15 2.81 15L17.18 15C17.43 15 17.67 15.09 17.84 15.27C18.02 15.45 18.12 15.68 18.12 15.93L18.12 16.25M4.37 9.37L4.37 8.75C4.37 8.41 4.5 8.1 4.74 7.86C4.97 7.63 5.29 7.5 5.62 7.5L8.75 7.5C9.08 7.5 9.39 7.63 9.63 7.86C9.86 8.1 9.99 8.41 10 8.75L10 9.37M10 8.75C10 8.41 10.13 8.1 10.36 7.86C10.6 7.63 10.91 7.5 11.25 7.5L14.37 7.5C14.7 7.5 15.02 7.63 15.25 7.86C15.49 8.1 15.62 8.41 15.62 8.75L15.62 9.37" stroke="#101828" stroke-opacity="1.000000" stroke-width="1.400000" stroke-linejoin="round"/>
	</g>
</symbol>
<symbol id="airConditioner" width="20.000000" height="20.000000" viewBox="0 0 20 20" fill="none" xmlns="http://www.w3.org/2000/svg" xmlns:xlink="http://www.w3.org/1999/xlink">
	<desc>
			Created with Pixso.
	</desc>
	<defs>
		<clipPath id="clip11_7844">
			<rect id="Vertical container" width="20.000000" height="20.000000" fill="white" fill-opacity="0"/>
		</clipPath>
	</defs>
	<rect id="Vertical container" width="20.000000" height="20.000000" fill="#FFFFFF" fill-opacity="0"/>
	<g clip-path="url(#clip11_7844)">
		<path id="Vector" d="M9.68 2C8.75 2 7.84 2.32 7.11 2.9C6.39 3.49 5.89 4.3 5.7 5.21L5.63 5.57C5.61 5.65 5.61 5.73 5.62 5.81C5.64 5.89 5.67 5.97 5.71 6.04C5.76 6.11 5.82 6.17 5.89 6.22C5.96 6.26 6.04 6.3 6.12 6.31C6.2 6.33 6.29 6.33 6.37 6.31C6.45 6.29 6.53 6.26 6.6 6.21C6.67 6.17 6.72 6.11 6.77 6.04C6.81 5.97 6.84 5.89 6.86 5.81L6.93 5.45C7.07 4.78 7.46 4.18 8.02 3.77C8.58 3.37 9.27 3.18 9.96 3.25C10.66 3.32 11.3 3.63 11.77 4.14C12.23 4.65 12.49 5.31 12.5 5.99C12.5 6.73 12.2 7.43 11.67 7.95C11.14 8.47 10.43 8.76 9.68 8.76L0.62 8.76C0.45 8.76 0.3 8.83 0.18 8.94C0.06 9.06 0 9.22 0 9.38C0 9.54 0.06 9.7 0.18 9.81C0.3 9.93 0.45 10 0.62 10L9.68 10C10.74 9.97 11.75 9.54 12.49 8.79C13.23 8.04 13.65 7.04 13.65 6C13.65 4.95 13.23 3.95 12.49 3.2C11.75 2.45 10.75 2.02 9.68 2ZM16.87 7.53C16.04 7.53 15.25 7.86 14.66 8.43C14.07 9.01 13.75 9.79 13.75 10.61C13.75 10.77 13.81 10.93 13.93 11.05C14.05 11.16 14.2 11.23 14.37 11.23C14.54 11.23 14.69 11.16 14.81 11.05C14.93 10.93 15 10.77 15 10.61C15 10.25 15.1 9.89 15.31 9.58C15.52 9.28 15.81 9.04 16.15 8.9C16.5 8.77 16.87 8.73 17.24 8.8C17.6 8.87 17.93 9.05 18.2 9.3C18.46 9.56 18.64 9.89 18.71 10.25C18.78 10.61 18.74 10.98 18.6 11.32C18.46 11.65 18.22 11.94 17.91 12.15C17.6 12.35 17.24 12.46 16.87 12.46L0.62 12.46C0.45 12.46 0.3 12.52 0.18 12.64C0.06 12.75 0 12.91 0 13.07C0 13.24 0.06 13.39 0.18 13.51C0.3 13.62 0.45 13.69 0.62 13.69L12.81 13.69C13.22 13.69 13.62 13.85 13.91 14.14C14.2 14.43 14.37 14.82 14.37 15.23C14.37 15.64 14.2 16.03 13.91 16.32C13.61 16.6 13.22 16.77 12.8 16.76C12.43 16.76 12.07 16.63 11.78 16.4C11.5 16.16 11.31 15.83 11.24 15.47L11.24 15.43C11.23 15.35 11.2 15.27 11.15 15.2C11.11 15.13 11.06 15.07 10.99 15.02C10.92 14.97 10.84 14.94 10.76 14.92C10.68 14.9 10.6 14.89 10.51 14.91C10.43 14.92 10.35 14.95 10.28 15C10.21 15.04 10.15 15.1 10.1 15.16C10.06 15.23 10.02 15.31 10.01 15.39C9.99 15.47 9.99 15.55 10 15.63L10.01 15.67C10.12 16.32 10.46 16.91 10.97 17.34C11.48 17.76 12.13 18 12.8 18C13.55 18 14.26 17.7 14.79 17.18C15.32 16.67 15.62 15.96 15.62 15.23C15.62 14.66 15.45 14.13 15.15 13.69L16.87 13.69C17.7 13.69 18.49 13.36 19.08 12.79C19.67 12.21 20 11.43 20 10.61C20 9.79 19.67 9.01 19.08 8.43C18.49 7.86 17.7 7.53 16.87 7.53Z" fill="#101828" fill-opacity="1.000000" fill-rule="nonzero"/>
		<path id="Vector" d="M12.84 3.6C12.73 3.46 12.62 3.33 12.49 3.2C11.75 2.45 10.75 2.02 9.68 2C9.36 2 9.04 2.03 8.74 2.11C8.14 2.25 7.59 2.52 7.11 2.9C6.8 3.15 6.54 3.44 6.32 3.76C6.06 4.14 5.87 4.55 5.75 5C5.74 5.07 5.72 5.14 5.7 5.21L5.63 5.57C5.61 5.65 5.61 5.73 5.62 5.81C5.64 5.89 5.67 5.97 5.71 6.04C5.76 6.11 5.82 6.17 5.89 6.22C5.96 6.26 6.04 6.3 6.12 6.31C6.2 6.33 6.29 6.33 6.37 6.31C6.45 6.29 6.53 6.26 6.6 6.21C6.67 6.17 6.72 6.11 6.77 6.04C6.81 5.97 6.84 5.89 6.86 5.81L6.93 5.45C6.96 5.29 7.01 5.14 7.07 5C7.26 4.51 7.59 4.09 8.02 3.77C8.02 3.77 8.03 3.77 8.03 3.76C8.5 3.42 9.07 3.24 9.65 3.23C9.66 3.23 9.67 3.23 9.69 3.23C9.74 3.23 9.8 3.24 9.86 3.24C9.89 3.24 9.93 3.24 9.96 3.25C10.66 3.32 11.3 3.63 11.77 4.14C11.8 4.18 11.83 4.21 11.86 4.25C12.14 4.58 12.33 4.97 12.43 5.39C12.47 5.58 12.49 5.79 12.5 5.99C12.5 6.23 12.46 6.47 12.4 6.69C12.33 6.96 12.22 7.22 12.07 7.46C11.96 7.63 11.82 7.8 11.67 7.95C11.53 8.09 11.39 8.21 11.23 8.31C10.99 8.46 10.73 8.58 10.45 8.66C10.41 8.67 10.38 8.68 10.34 8.69C10.32 8.69 10.29 8.7 10.27 8.7C10.08 8.74 9.88 8.76 9.68 8.76L0.62 8.76C0.45 8.76 0.3 8.83 0.18 8.94C0.06 9.06 0 9.22 0 9.38C0 9.54 0.06 9.7 0.18 9.81C0.3 9.93 0.45 10 0.62 10L9.68 10C9.75 9.99 9.82 9.99 9.89 9.98C9.93 9.98 9.98 9.98 10.02 9.97C10.03 9.97 10.04 9.97 10.04 9.97C10.18 9.95 10.33 9.93 10.46 9.9C11.23 9.73 11.94 9.35 12.49 8.79C12.52 8.76 12.56 8.72 12.59 8.69C12.92 8.32 13.19 7.91 13.37 7.46C13.51 7.08 13.61 6.69 13.64 6.29C13.64 6.19 13.65 6.09 13.65 6C13.65 5.55 13.57 5.1 13.42 4.69C13.29 4.3 13.09 3.93 12.84 3.6ZM17.33 7.57C17.18 7.54 17.03 7.53 16.87 7.53C16.04 7.53 15.25 7.86 14.66 8.43C14.58 8.52 14.5 8.6 14.43 8.69C14.39 8.74 14.34 8.8 14.3 8.86C13.94 9.37 13.75 9.98 13.75 10.61C13.75 10.71 13.77 10.81 13.82 10.9C13.85 10.95 13.88 11 13.93 11.05C14.01 11.13 14.12 11.18 14.23 11.21C14.27 11.22 14.32 11.23 14.37 11.23C14.54 11.23 14.69 11.16 14.81 11.05C14.93 10.93 15 10.77 15 10.61C15 10.25 15.1 9.89 15.31 9.58C15.38 9.48 15.47 9.38 15.56 9.29C15.73 9.13 15.93 9 16.15 8.9C16.42 8.8 16.7 8.75 16.98 8.77C17.07 8.77 17.15 8.78 17.24 8.8C17.54 8.86 17.82 8.99 18.06 9.18C18.11 9.22 18.15 9.26 18.2 9.3C18.46 9.56 18.64 9.89 18.71 10.25C18.73 10.37 18.74 10.49 18.75 10.61L18.75 10.61L18.75 10.62C18.74 10.86 18.7 11.09 18.6 11.32C18.6 11.33 18.59 11.34 18.59 11.35C18.53 11.49 18.45 11.62 18.36 11.74C18.23 11.89 18.08 12.03 17.91 12.15C17.63 12.33 17.3 12.44 16.96 12.45C16.93 12.46 16.9 12.46 16.87 12.46L0.62 12.46C0.45 12.46 0.3 12.52 0.18 12.64C0.06 12.75 0 12.91 0 13.07C0 13.24 0.06 13.39 0.18 13.51C0.3 13.62 0.45 13.69 0.62 13.69L12.81 13.69C13.15 13.69 13.47 13.8 13.74 13.99C13.8 14.04 13.86 14.09 13.91 14.14C14.13 14.35 14.27 14.62 14.33 14.91C14.34 14.94 14.35 14.97 14.35 15C14.36 15.08 14.37 15.15 14.37 15.23C14.37 15.59 14.24 15.94 14 16.21C13.97 16.25 13.94 16.28 13.91 16.32C13.61 16.6 13.22 16.77 12.8 16.76C12.43 16.76 12.07 16.63 11.78 16.4C11.5 16.16 11.31 15.83 11.24 15.47L11.24 15.43C11.23 15.36 11.2 15.29 11.17 15.23C11.17 15.22 11.16 15.21 11.15 15.2C11.11 15.13 11.06 15.07 10.99 15.02C10.92 14.97 10.85 14.94 10.77 14.92C10.77 14.92 10.77 14.92 10.76 14.92C10.76 14.92 10.76 14.92 10.76 14.92C10.72 14.91 10.68 14.9 10.64 14.9C10.6 14.9 10.56 14.9 10.51 14.91C10.45 14.92 10.39 14.94 10.34 14.97C10.32 14.97 10.3 14.98 10.28 15C10.21 15.04 10.15 15.1 10.1 15.16L10.1 15.16C10.06 15.23 10.02 15.31 10.01 15.39C9.99 15.47 9.99 15.55 10 15.63L10.01 15.67C10.12 16.32 10.46 16.91 10.97 17.34C11.02 17.38 11.08 17.42 11.13 17.46C11.61 17.81 12.2 18 12.8 18C13.41 18 13.99 17.8 14.47 17.46C14.51 17.43 14.54 17.4 14.58 17.37C14.65 17.31 14.73 17.25 14.79 17.18C14.93 17.05 15.04 16.91 15.15 16.76C15.28 16.56 15.39 16.35 15.47 16.12C15.57 15.83 15.62 15.53 15.62 15.23C15.62 15.09 15.61 14.96 15.59 14.83C15.59 14.79 15.58 14.74 15.57 14.7C15.5 14.33 15.35 13.99 15.15 13.69L16.87 13.69C17.64 13.69 18.37 13.41 18.94 12.91C18.99 12.87 19.04 12.83 19.08 12.79C19.39 12.48 19.63 12.12 19.78 11.72C19.92 11.37 20 11 20 10.61C20 9.79 19.67 9.01 19.08 8.43C18.89 8.24 18.67 8.08 18.43 7.95C18.16 7.79 17.87 7.68 17.56 7.61C17.49 7.59 17.41 7.58 17.33 7.57Z" fill="#101828" fill-opacity="1.000000" fill-rule="evenodd"/>
	</g>
</symbol>
<symbol id="close" width="32.000000" height="32.000000" viewBox="0 0 32 32" fill="none" xmlns="http://www.w3.org/2000/svg" xmlns:xlink="http://www.w3.org/1999/xlink">
	
		<path id="Vector" d="M24 8L8 24" stroke-opacity="1.000000" stroke-width="3.000000" stroke-linejoin="round" stroke-linecap="round"/>
		<path id="Vector" d="M8 8L24 24" stroke-opacity="1.000000" stroke-width="3.000000" stroke-linejoin="round" stroke-linecap="round"/>

</symbol>
<symbol id="condition" width="20.000000" height="20.000000" viewBox="0 0 20 20" fill="none" xmlns="http://www.w3.org/2000/svg" xmlns:xlink="http://www.w3.org/1999/xlink">
	<desc>
			Created with Pixso.
	</desc>
	<defs>
		<clipPath id="clip45_422">
			<rect id="streamline:hotel-air-conditioner" width="20.000000" height="20.000000" fill="white" fill-opacity="0"/>
		</clipPath>
	</defs>
	<rect id="streamline:hotel-air-conditioner" width="20.000000" height="20.000000" fill="#FFFFFF" fill-opacity="0"/>
	<g clip-path="url(#clip45_422)">
		<path id="Vector" d="M2.14 0.71C1.76 0.71 1.4 0.86 1.13 1.13C0.86 1.4 0.71 1.76 0.71 2.14L0.71 9.28C0.71 9.66 0.86 10.02 1.13 10.29C1.4 10.56 1.76 10.71 2.14 10.71L17.85 10.71C18.23 10.71 18.59 10.56 18.86 10.29C19.13 10.02 19.28 9.66 19.28 9.28L19.28 2.14C19.28 1.76 19.13 1.4 18.86 1.13C18.59 0.86 18.23 0.71 17.85 0.71L2.14 0.71Z" stroke="#101828" stroke-opacity="1.000000" stroke-width="1.500000" stroke-linejoin="round"/>
		<path id="Vector" d="M15.71 10.71L15.71 7.85C15.71 7.47 15.56 7.11 15.29 6.84C15.02 6.57 14.66 6.42 14.28 6.42L5.71 6.42C5.33 6.42 4.97 6.57 4.7 6.84C4.43 7.11 4.28 7.47 4.28 7.85L4.28 10.71M3.57 17.85L3.71 17.85C4.24 17.85 4.75 17.64 5.12 17.27C5.5 16.89 5.71 16.38 5.71 15.85L5.71 14.28M16.42 17.85L16.28 17.85C15.75 17.85 15.24 17.64 14.87 17.27C14.49 16.89 14.28 16.38 14.28 15.85L14.28 14.28M10 19.28L10 14.28" stroke="#101828" stroke-opacity="1.000000" stroke-width="1.500000" stroke-linejoin="round"/>
	</g>
</symbol>
<symbol id="CD" width="20.000000" height="20.000000" viewBox="0 0 20 20" fill="none" xmlns="http://www.w3.org/2000/svg" xmlns:xlink="http://www.w3.org/1999/xlink">
	<desc>
			Created with Pixso.
	</desc>
	<defs>
		<clipPath id="clip45_481">
			<rect id="icon-park-outline:cd" width="20.000000" height="20.000000" fill="white" fill-opacity="0"/>
		</clipPath>
	</defs>
	<rect id="icon-park-outline:cd" width="20.000000" height="20.000000" fill="#FFFFFF" fill-opacity="0"/>
	<g clip-path="url(#clip45_481)">
		<path id="Vector" d="M10 17.5C5.85 17.5 2.5 14.14 2.5 10C2.5 5.85 5.85 2.5 10 2.5C14.14 2.5 17.5 5.85 17.5 10C17.5 14.14 14.14 17.5 10 17.5Z" stroke="#101828" stroke-opacity="1.000000" stroke-width="1.500000"/>
		<path id="Vector" d="M5.41 10C5.41 7.46 7.46 5.41 10 5.41" stroke="#101828" stroke-opacity="1.000000" stroke-width="1.500000" stroke-linecap="round"/>
		<path id="Vector" d="M10 12.08C8.84 12.08 7.91 11.15 7.91 9.99C7.91 8.84 8.84 7.91 10 7.91C11.15 7.91 12.08 8.84 12.08 9.99C12.08 11.15 11.15 12.08 10 12.08Z" stroke="#101828" stroke-opacity="1.000000" stroke-width="1.500000"/>
	</g>
</symbol>
<symbol id="TV" width="20.000000" height="20.000000" viewBox="0 0 32 32" fill="none" xmlns="http://www.w3.org/2000/svg" xmlns:xlink="http://www.w3.org/1999/xlink">
	<desc>
			Created with Pixso.
	</desc>
	<defs>
		<clipPath id="clip18_11594">
			<rect id="Vertical container" width="32.000000" height="32.000000" fill="white" fill-opacity="0"/>
		</clipPath>
	</defs>
	<rect id="Vertical container" width="32.000000" height="32.000000" fill="#FFFFFF" fill-opacity="0"/>
	<g clip-path="url(#clip18_11594)">
		<path id="Vector" d="M8 26C5.78 26 4 24.21 4 22L4 12C4 9.78 5.78 8 8 8L24 8C26.21 8 28 9.78 28 12L28 22C28 24.21 26.21 26 24 26L8 26Z" stroke="#101828" stroke-opacity="1.000000" stroke-width="1.800000" stroke-linejoin="round"/>
		<path id="Vector" d="M12 30L20 30" stroke="#101828" stroke-opacity="1.000000" stroke-width="1.800000" stroke-linejoin="round" stroke-linecap="round"/>
		<path id="Vector" d="M16 8L22 2" stroke="#101828" stroke-opacity="1.000000" stroke-width="1.800000" stroke-linejoin="round" stroke-linecap="round"/>
		<path id="Vector" d="M16 8L10 2" stroke="#101828" stroke-opacity="1.000000" stroke-width="1.800000" stroke-linejoin="round" stroke-linecap="round"/>
	</g>
</symbol>
<symbol id="radio" width="20.000000" height="20.000000" viewBox="0 0 20 20" fill="none" xmlns="http://www.w3.org/2000/svg" xmlns:xlink="http://www.w3.org/1999/xlink">
	<desc>
			Created with Pixso.
	</desc>
	<defs>
		<clipPath id="clip45_486">
			<rect id="solar:radio-linear" width="20.000000" height="20.000000" fill="white" fill-opacity="0"/>
		</clipPath>
	</defs>
	<rect id="solar:radio-linear" width="20.000000" height="20.000000" fill="#FFFFFF" fill-opacity="0"/>
	<g clip-path="url(#clip45_486)">
		<path id="Vector" d="M2.64 5.97C3.61 5 5.19 5 8.33 5L11.66 5C14.8 5 16.38 5 17.35 5.97C18.33 6.95 18.33 8.52 18.33 11.66C18.33 14.8 18.33 16.38 17.35 17.35C16.38 18.33 14.8 18.33 11.66 18.33L8.33 18.33C5.19 18.33 3.61 18.33 2.64 17.35C1.66 16.38 1.66 14.8 1.66 11.66C1.66 8.52 1.66 6.95 2.64 5.97Z" stroke="#101828" stroke-opacity="1.000000" stroke-width="1.300000"/>
		<path id="Vector" d="M4.65 7.98C4.96 7.67 5.39 7.5 5.83 7.5L14.16 7.5C14.6 7.5 15.03 7.67 15.34 7.98C15.65 8.3 15.83 8.72 15.83 9.16C15.83 9.6 15.65 10.03 15.34 10.34C15.03 10.65 14.6 10.83 14.16 10.83L5.83 10.83C5.39 10.83 4.96 10.65 4.65 10.34C4.34 10.03 4.16 9.6 4.16 9.16C4.16 8.72 4.34 8.3 4.65 7.98ZM7.13 15.05C6.89 15.28 6.58 15.41 6.25 15.41C5.91 15.41 5.6 15.28 5.36 15.05C5.13 14.81 5 14.49 5 14.16C5 13.83 5.13 13.51 5.36 13.28C5.6 13.04 5.91 12.91 6.25 12.91C6.58 12.91 6.89 13.04 7.13 13.28C7.36 13.51 7.5 13.83 7.5 14.16C7.5 14.49 7.36 14.81 7.13 15.05Z" stroke="#101828" stroke-opacity="1.000000" stroke-width="1.300000"/>
		<path id="Vector" d="M12.5 9.58L12.5 10.83M10.83 14.16L15 14.16M5.41 4.99L12.5 1.66" stroke="#101828" stroke-opacity="1.000000" stroke-width="1.300000"/>
	</g>
</symbol>
<symbol id="hob" width="20.000000" height="20.000000" viewBox="0 0 20 20" fill="none" xmlns="http://www.w3.org/2000/svg" xmlns:xlink="http://www.w3.org/1999/xlink">
	<desc>
			Created with Pixso.
	</desc>
	<defs>
		<clipPath id="clip45_497">
			<rect id="icon-park-outline:hand-painted-plate" width="20.000000" height="20.000000" fill="white" fill-opacity="0"/>
		</clipPath>
	</defs>
	<rect id="icon-park-outline:hand-painted-plate" width="20.000000" height="20.000000" fill="#FFFFFF" fill-opacity="0"/>
	<g clip-path="url(#clip45_497)">
		<path id="Vector" d="M17.5 4.16C17.72 4.16 17.93 4.25 18.08 4.41C18.24 4.56 18.33 4.77 18.33 5L18.33 15.83C18.33 16.05 18.24 16.26 18.08 16.42C17.93 16.57 17.72 16.66 17.5 16.66L7.5 16.66L2.5 16.66C2.27 16.66 2.06 16.57 1.91 16.42C1.75 16.26 1.66 16.05 1.66 15.83L1.66 5C1.66 4.77 1.75 4.56 1.91 4.41C2.06 4.25 2.27 4.16 2.5 4.16L7.5 4.16L17.5 4.16ZM7.5 4.16L7.5 16.66" stroke="#101828" stroke-opacity="1.000000" stroke-width="1.500000"/>
		<path id="Vector" d="M4.58 7.08L4.58 8.75M15.41 6.66L10.41 13.75" stroke="#101828" stroke-opacity="1.000000" stroke-width="1.500000" stroke-linejoin="round"/>
		<path id="Vector" d="M4.58 10.41C5.04 10.41 5.41 10.78 5.41 11.25C5.41 11.71 5.04 12.08 4.58 12.08C4.12 12.08 3.75 11.71 3.75 11.25C3.75 10.78 4.12 10.41 4.58 10.41Z" fill="#101828" fill-opacity="1.000000" fill-rule="evenodd"/>
		<path id="Vector" d="M4.58 12.91C5.04 12.91 5.41 13.28 5.41 13.75C5.41 14.21 5.04 14.58 4.58 14.58C4.12 14.58 3.75 14.21 3.75 13.75C3.75 13.28 4.12 12.91 4.58 12.91Z" fill="#101828" fill-opacity="1.000000" fill-rule="evenodd"/>
	</g>
</symbol>
<symbol id="shower" width="23" height="23" viewBox="0 0 32 32" fill="none" xmlns="http://www.w3.org/2000/svg">
<path d="M5.33325 5.33333L8.66659 8.66666M17.9999 8.66666C16.758 7.44957 15.0859 6.77177 13.3471 6.78055C11.6082 6.78934 9.94306 7.48399 8.71349 8.71356C7.48391 9.94314 6.78926 11.6083 6.78048 13.3471C6.77169 15.086 7.44949 16.7581 8.66659 18M19.9999 6.66666L6.66659 20M18.6666 22.6667V22.68M13.3333 21.3333V21.3467M17.3333 17.3333V17.3467M21.3333 13.3333V13.3467M14.6666 26.6667V26.68M22.6666 18.6667V18.68M26.6666 14.6667V14.68" stroke="#101828" stroke-width="2" stroke-linecap="round" stroke-linejoin="round"/>
</symbol>
</svg>