<svg>
<symbol id="heart" width="24.000000" height="24.000000" viewBox="0 0 24 24" fill="none" xmlns="http://www.w3.org/2000/svg" xmlns:xlink="http://www.w3.org/1999/xlink">
	<desc>
			Created with Pixso.
	</desc>
	<defs>
		<clipPath id="clip58_220">
			<rect id="Property 1=Default" width="24.000000" height="24.000000" fill="white" fill-opacity="0"/>
		</clipPath>
	</defs>
	<rect id="Property 1=Default" width="24.000000" height="24.000000" fill="#FFFFFF" fill-opacity="0"/>
	<g clip-path="url(#clip58_220)">
		<path d="M19.05 3.41C18.38 3.14 17.67 2.99 16.95 2.99C16.22 2.99 15.51 3.14 14.84 3.41C14.17 3.69 13.57 4.09 13.06 4.61L12 5.67L10.94 4.61C9.9 3.57 8.5 2.99 7.05 2.99C5.59 2.99 4.19 3.57 3.16 4.61C2.12 5.64 1.54 7.04 1.54 8.5C1.54 9.95 2.12 11.35 3.16 12.39L4.22 13.45L12 21.23L19.78 13.45L20.84 12.39C21.35 11.87 21.75 11.27 22.03 10.6C22.3 9.93 22.45 9.22 22.45 8.5C22.45 7.77 22.3 7.06 22.03 6.39C21.75 5.72 21.35 5.12 20.84 4.61C20.32 4.09 19.72 3.69 19.05 3.41Z" stroke="#101828" stroke-opacity="1.000000" stroke-width="2.300000" stroke-linejoin="round"/>
	</g>
</symbol>
<symbol id='heart-red' width="24.000000" height="24.000000" viewBox="0 0 24 24" fill="none" xmlns="http://www.w3.org/2000/svg" xmlns:xlink="http://www.w3.org/1999/xlink">
	<desc>
			Created with Pixso.
	</desc>
	<defs>
		<clipPath id="clip58_222">
			<rect id="Property 1=pressed" width="24.000000" height="24.000000" fill="white" fill-opacity="0"/>
		</clipPath>
	</defs>
	<rect id="Property 1=pressed" width="24.000000" height="24.000000" fill="#FFFFFF" fill-opacity="0"/>
	<g clip-path="url(#clip58_222)">
		<path id="Vector" d="M20.84 4.61C20.32 4.09 19.72 3.69 19.05 3.41C18.38 3.14 17.67 2.99 16.95 2.99C16.22 2.99 15.51 3.14 14.84 3.41C14.17 3.69 13.57 4.09 13.06 4.61L12 5.67L10.94 4.61C9.9 3.57 8.5 2.99 7.05 2.99C5.59 2.99 4.19 3.57 3.16 4.61C2.12 5.64 1.54 7.04 1.54 8.5C1.54 9.95 2.12 11.35 3.16 12.39L4.22 13.45L12 21.23L19.78 13.45L20.84 12.39C21.35 11.87 21.75 11.27 22.03 10.6C22.3 9.93 22.45 9.22 22.45 8.5C22.45 7.77 22.3 7.06 22.03 6.39C21.75 5.72 21.35 5.12 20.84 4.61Z" fill="#E44848" fill-opacity="1.000000" fill-rule="nonzero"/>
		<path id="Vector" d="M19.05 3.41C18.38 3.14 17.67 2.99 16.95 2.99C16.22 2.99 15.51 3.14 14.84 3.41C14.17 3.69 13.57 4.09 13.06 4.61L12 5.67L10.94 4.61C9.9 3.57 8.5 2.99 7.05 2.99C5.59 2.99 4.19 3.57 3.16 4.61C2.12 5.64 1.54 7.04 1.54 8.5C1.54 9.95 2.12 11.35 3.16 12.39L4.22 13.45L12 21.23L19.78 13.45L20.84 12.39C21.35 11.87 21.75 11.27 22.03 10.6C22.3 9.93 22.45 9.22 22.45 8.5C22.45 7.77 22.3 7.06 22.03 6.39C21.75 5.72 21.35 5.12 20.84 4.61C20.32 4.09 19.72 3.69 19.05 3.41Z" stroke="#E44848" stroke-opacity="1.000000" stroke-width="2.300000" stroke-linejoin="round"/>
	</g>
</symbol>
<symbol id="star" width="15.000000" height="14.000000" viewBox="0 0 15 14" fill="none" xmlns="http://www.w3.org/2000/svg" xmlns:xlink="http://www.w3.org/1999/xlink">
	<desc>
			Created with Pixso.
	</desc>
	<defs/>
	<path id="Rating" d="M6.55 -0.17L4.66 3.41C4.59 3.55 4.46 3.64 4.31 3.67L0.32 4.36C-0.08 4.43 -0.23 4.91 0.05 5.2L2.87 8.1C2.98 8.22 3.03 8.37 3 8.52L2.43 12.53C2.37 12.93 2.78 13.23 3.14 13.05L6.77 11.26C6.91 11.2 7.08 11.2 7.22 11.26L10.85 13.05C11.21 13.23 11.62 12.93 11.56 12.53L10.99 8.52C10.96 8.37 11.01 8.22 11.12 8.1L13.94 5.2C14.22 4.91 14.07 4.43 13.67 4.36L9.68 3.67C9.53 3.64 9.4 3.55 9.33 3.41L7.44 -0.17C7.25 -0.52 6.74 -0.52 6.55 -0.17Z" fill="#FFC531" fill-opacity="1.000000" fill-rule="evenodd"/>
	<path id="Rating" d="M4.66 3.41C4.59 3.55 4.46 3.64 4.31 3.67L0.32 4.36C-0.08 4.43 -0.23 4.91 0.05 5.2L2.87 8.1C2.98 8.22 3.03 8.37 3 8.52L2.43 12.53C2.37 12.93 2.78 13.23 3.14 13.05L6.77 11.26C6.91 11.2 7.08 11.2 7.22 11.26L10.85 13.05C11.21 13.23 11.62 12.93 11.56 12.53L10.99 8.52C10.96 8.37 11.01 8.22 11.12 8.1L13.94 5.2C14.22 4.91 14.07 4.43 13.67 4.36L9.68 3.67C9.53 3.64 9.4 3.55 9.33 3.41L7.44 -0.17C7.25 -0.52 6.74 -0.52 6.55 -0.17L4.66 3.41ZM5.73 3.97C5.48 4.44 5.03 4.76 4.51 4.85L1.83 5.32L3.73 7.27C4.1 7.65 4.27 8.17 4.19 8.69L3.8 11.39L6.24 10.19C6.72 9.95 7.27 9.95 7.75 10.19L10.19 11.39L9.8 8.69C9.72 8.17 9.89 7.65 10.26 7.27L12.16 5.32L9.48 4.85C8.96 4.76 8.51 4.44 8.26 3.97L7 1.57L5.73 3.97Z" fill="#FFC531" fill-opacity="1.000000" fill-rule="evenodd"/>
</symbol>
<symbol id="grey-star" width="15.000000" height="14.000000" viewBox="0 0 15 14" fill="none" xmlns="http://www.w3.org/2000/svg" xmlns:xlink="http://www.w3.org/1999/xlink">
	<desc>
			Created with Pixso.
	</desc>
	<defs/>
	<path id="Rating" d="M6.55 -0.17L4.66 3.41C4.59 3.55 4.46 3.64 4.31 3.67L0.32 4.36C-0.08 4.43 -0.23 4.91 0.05 5.2L2.87 8.1C2.98 8.22 3.03 8.37 3 8.52L2.43 12.53C2.37 12.93 2.78 13.23 3.14 13.05L6.77 11.26C6.91 11.2 7.08 11.2 7.22 11.26L10.85 13.05C11.21 13.23 11.62 12.93 11.56 12.53L10.99 8.52C10.96 8.37 11.01 8.22 11.12 8.1L13.94 5.2C14.22 4.91 14.07 4.43 13.67 4.36L9.68 3.67C9.53 3.64 9.4 3.55 9.33 3.41L7.44 -0.17C7.25 -0.52 6.74 -0.52 6.55 -0.17Z" fill="#F2F4F7" fill-opacity="1.000000" fill-rule="evenodd"/>
	<path id="Rating" d="M4.66 3.41C4.59 3.55 4.46 3.64 4.31 3.67L0.32 4.36C-0.08 4.43 -0.23 4.91 0.05 5.2L2.87 8.1C2.98 8.22 3.03 8.37 3 8.52L2.43 12.53C2.37 12.93 2.78 13.23 3.14 13.05L6.77 11.26C6.91 11.2 7.08 11.2 7.22 11.26L10.85 13.05C11.21 13.23 11.62 12.93 11.56 12.53L10.99 8.52C10.96 8.37 11.01 8.22 11.12 8.1L13.94 5.2C14.22 4.91 14.07 4.43 13.67 4.36L9.68 3.67C9.53 3.64 9.4 3.55 9.33 3.41L7.44 -0.17C7.25 -0.52 6.74 -0.52 6.55 -0.17L4.66 3.41ZM5.73 3.97C5.48 4.44 5.03 4.76 4.51 4.85L1.83 5.32L3.73 7.27C4.1 7.65 4.27 8.17 4.19 8.69L3.8 11.39L6.25 10.19C6.72 9.95 7.27 9.95 7.75 10.19L10.19 11.39L9.8 8.69C9.72 8.17 9.89 7.65 10.26 7.27L12.16 5.32L9.48 4.85C8.96 4.76 8.51 4.44 8.26 3.97L7 1.57L5.73 3.97Z" fill="#F2F4F7" fill-opacity="1.000000" fill-rule="evenodd"/>
</symbol>
<symbol id="location" width="16.000000" height="16.000000" viewBox="0 0 16 16" fill="none" xmlns="http://www.w3.org/2000/svg" xmlns:xlink="http://www.w3.org/1999/xlink">
	<desc>
			Created with Pixso.
	</desc>
	<defs>
		<clipPath id="clip45_230">
			<rect id="map-pin" width="16.000000" height="16.000000" fill="white" fill-opacity="0"/>
		</clipPath>
	</defs>
	<rect id="map-pin" width="16.000000" height="16.000000" fill="#FFFFFF" fill-opacity="0"/>
	<g clip-path="url(#clip45_230)">
		<path id="Vector" d="M8 15.33C8 15.33 2 11.33 2 6.66C2 5.07 2.63 3.54 3.75 2.42C4.88 1.29 6.4 0.66 8 0.66C9.59 0.66 11.11 1.29 12.24 2.42C13.36 3.54 14 5.07 14 6.66C14 11.33 8 15.33 8 15.33Z" stroke="#101828" stroke-opacity="1.000000" stroke-width="1.300000" stroke-linejoin="round"/>
		<path id="Vector" d="M8 8.66C6.89 8.66 6 7.77 6 6.66C6 5.56 6.89 4.66 8 4.66C9.1 4.66 10 5.56 10 6.66C10 7.77 9.1 8.66 8 8.66Z" stroke="#101828" stroke-opacity="1.000000" stroke-width="1.300000" stroke-linejoin="round"/>
	</g>
</symbol>
<symbol id="users" width="20.000000" height="20.000000" viewBox="0 0 20 20" fill="none" xmlns="http://www.w3.org/2000/svg" xmlns:xlink="http://www.w3.org/1999/xlink">
	<desc>
			Created with Pixso.
	</desc>
	<defs>
		<clipPath id="clip11_7818">
			<rect id="Users" width="20.000000" height="20.000000" fill="white" fill-opacity="0"/>
		</clipPath>
	</defs>
	<rect id="Users" width="20.000000" height="20.000000" fill="#FFFFFF" fill-opacity="0"/>
	<g clip-path="url(#clip11_7818)">
		<path id="Vector" d="M5.66 15.08L2.91 15.08C2.75 15.08 2.66 15 2.58 14.91C2.5 14.83 2.41 14.66 2.5 14.5C3 13.08 4.25 12.25 5.66 12.25C7.41 12.25 8.83 10.75 8.83 9C8.83 7.25 7.41 5.58 5.66 5.58C3.91 5.58 2.5 7.08 2.5 8.91C2.5 9.75 2.83 10.58 3.33 11.16C2.25 11.75 1.41 12.66 0.91 13.91C0.75 14.5 0.83 15.25 1.25 15.83C1.66 16.41 2.25 16.75 2.91 16.75L5.66 16.75C6.16 16.75 6.5 16.41 6.5 15.91C6.5 15.41 6.16 15.08 5.66 15.08ZM4.16 8.91C4.16 8 4.83 7.33 5.66 7.33C6.5 7.33 7.16 8.08 7.16 8.91C7.16 9.83 6.5 10.5 5.66 10.5C4.83 10.5 4.16 9.75 4.16 8.91Z" fill="#101828" fill-opacity="1.000000" fill-rule="nonzero"/>
		<path id="Vector" d="M19.08 13.41C18.5 11.83 17.33 10.66 16 10C16.75 9.33 17.16 8.33 17.16 7.16C17.16 5 15.5 3.25 13.5 3.25C11.5 3.25 9.83 5 9.83 7.16C9.83 8.25 10.25 9.25 11 10C9.66 10.66 8.5 11.83 7.91 13.41C7.5 14.16 7.66 15 8.08 15.66C8.5 16.33 9.25 16.66 10 16.66L16.91 16.66C17.66 16.66 18.41 16.25 18.83 15.66C19.33 15 19.41 14.16 19.08 13.41ZM11.41 7.25C11.41 6 12.33 5 13.41 5C14.5 5 15.41 6 15.41 7.25C15.41 8.5 14.5 9.5 13.41 9.5C12.33 9.5 11.41 8.41 11.41 7.25ZM17.41 14.75C17.33 14.83 17.16 15.08 16.91 15.08L10 15.08C9.66 15.08 9.5 14.83 9.5 14.75C9.41 14.66 9.25 14.33 9.41 14C10.08 12.25 11.75 11.08 13.5 11.08C15.25 11.08 16.91 12.25 17.58 14C17.66 14.33 17.5 14.66 17.41 14.75Z" fill="#101828" fill-opacity="1.000000" fill-rule="nonzero"/>
	</g>
</symbol>
<symbol id="transmission" viewBox="0 0 20 20" fill="none" xmlns="http://www.w3.org/2000/svg" xmlns:xlink="http://www.w3.org/1999/xlink">
	<desc>
			Created with Pixso.
	</desc>
	<defs>
		<clipPath id="clip11_7821">
			<rect id="Container" width="20.000000" height="20.000000" fill="white" fill-opacity="0"/>
		</clipPath>
	</defs>
	<rect id="Container" width="20.000000" height="20.000000" fill="#FFFFFF" fill-opacity="0"/>
	<g clip-path="url(#clip11_7821)">
		<path id="Vector" d="M14.16 17.5L15 17.5C15.44 17.5 15.86 17.32 16.17 17.01C16.49 16.69 16.66 16.27 16.66 15.83C16.66 15.39 16.49 14.96 16.17 14.65C15.86 14.34 15.44 14.16 15 14.16L14.16 14.16L14.16 17.5ZM14.16 9.16L15.41 9.16C15.74 9.16 16.06 9.03 16.3 8.8C16.53 8.56 16.66 8.24 16.66 7.91C16.66 7.58 16.53 7.26 16.3 7.03C16.06 6.79 15.74 6.66 15.41 6.66L14.16 6.66L14.16 10.83M2.98 5.34C3.3 5.65 3.72 5.83 4.16 5.83C4.6 5.83 5.03 5.65 5.34 5.34C5.65 5.03 5.83 4.6 5.83 4.16C5.83 3.72 5.65 3.3 5.34 2.98C5.03 2.67 4.6 2.5 4.16 2.5C3.72 2.5 3.3 2.67 2.98 2.98C2.67 3.3 2.5 3.72 2.5 4.16C2.5 4.6 2.67 5.03 2.98 5.34Z" stroke="#101828" stroke-opacity="1.000000" stroke-width="1.500000" stroke-linejoin="round" stroke-linecap="round"/>
		<path id="Vector" d="M4.16 5.83L4.16 8.33C4.16 8.55 4.25 8.76 4.41 8.92C4.56 9.07 4.77 9.16 5 9.16L7.5 9.16L10.83 9.16M7.5 9.16L7.5 15C7.5 15.22 7.58 15.43 7.74 15.58C7.9 15.74 8.11 15.83 8.33 15.83L10.83 15.83" stroke="#101828" stroke-opacity="1.000000" stroke-width="1.500000" stroke-linejoin="round"/>
	</g>
</symbol>
<symbol id="engine" width="20.000000" height="20.000000" viewBox="0 0 20 20" fill="none" xmlns="http://www.w3.org/2000/svg" xmlns:xlink="http://www.w3.org/1999/xlink">
	<desc>
			Created with Pixso.
	</desc>
	<defs>
		<clipPath id="clip2_2625">
			<rect id="Vertical container" width="20.000000" height="20.000000" fill="white" fill-opacity="0"/>
		</clipPath>
	</defs>
	<rect id="Vertical container" width="20.000000" height="20.000000" fill="#FFFFFF" fill-opacity="0"/>
	<g clip-path="url(#clip2_2625)">
		<path id="Vector" d="M16.47 6.02L16.48 6.01L13.38 2.91L12.5 3.8L14.25 5.55C13.47 5.85 12.91 6.6 12.91 7.5C12.91 7.77 12.97 8.04 13.07 8.29C13.18 8.55 13.33 8.77 13.52 8.97C13.91 9.36 14.44 9.58 15 9.58C15.3 9.58 15.57 9.51 15.83 9.4L15.83 15.41C15.83 15.63 15.74 15.84 15.58 16C15.43 16.16 15.22 16.25 15 16.25C14.77 16.25 14.56 16.16 14.41 16C14.25 15.84 14.16 15.63 14.16 15.41L14.16 11.66C14.16 11.22 13.99 10.8 13.67 10.48C13.36 10.17 12.94 10 12.5 10L11.66 10L11.66 4.16C11.66 3.72 11.49 3.3 11.17 2.98C10.86 2.67 10.44 2.5 10 2.5L5 2.5C4.55 2.5 4.13 2.67 3.82 2.98C3.5 3.3 3.33 3.72 3.33 4.16L3.33 17.5L11.66 17.5L11.66 11.25L12.91 11.25L12.91 15.41C12.91 15.96 13.13 16.49 13.52 16.88C13.91 17.28 14.44 17.5 15 17.5C15.27 17.5 15.54 17.44 15.79 17.34C16.05 17.23 16.27 17.08 16.47 16.88C16.66 16.69 16.82 16.46 16.92 16.21C17.02 15.96 17.08 15.69 17.08 15.41L17.08 7.5C17.08 6.92 16.85 6.4 16.47 6.02ZM10 11.25L10 15.83L5 15.83L5 10L10 10L10 11.25ZM10 8.33L5 8.33L5 4.16L10 4.16L10 8.33ZM15 8.33C14.77 8.33 14.56 8.24 14.41 8.08C14.25 7.93 14.16 7.72 14.16 7.5C14.16 7.27 14.25 7.06 14.41 6.91C14.56 6.75 14.77 6.66 15 6.66C15.22 6.66 15.43 6.75 15.58 6.91C15.74 7.06 15.83 7.27 15.83 7.5C15.83 7.72 15.74 7.93 15.58 8.08C15.43 8.24 15.22 8.33 15 8.33Z" fill="#101828" fill-opacity="1.000000" fill-rule="nonzero"/>
	</g>
</symbol>
<symbol id="kitchen" viewBox="0 0 20 20" fill="none" xmlns="http://www.w3.org/2000/svg" xmlns:xlink="http://www.w3.org/1999/xlink">
	<desc>
			Created with Pixso.
	</desc>
	<defs>
		<clipPath id="clip2_2631">
			<rect id="Horizontal container" width="20.000000" height="20.000000" fill="white" fill-opacity="0"/>
		</clipPath>
	</defs>
	<rect id="Horizontal container" width="20.000000" height="20.000000" fill="#FFFFFF" fill-opacity="0"/>
	<g clip-path="url(#clip2_2631)">
		<path id="Vector" d="M15.83 12.5L11.66 12.5C11.64 9.43 11.81 6.32 15.83 2.5L15.83 12.5L15.83 17.5L14.99 17.5L14.99 15M6.66 3.33L6.66 17.5M4.16 3.33L4.16 5.83C4.16 6.49 4.42 7.13 4.89 7.6C5.36 8.06 6 8.33 6.66 8.33C7.32 8.33 7.96 8.06 8.43 7.6C8.9 7.13 9.16 6.49 9.16 5.83L9.16 3.33" stroke="#101828" stroke-opacity="1.000000" stroke-width="1.500000" stroke-linejoin="round"/>
	</g>
</symbol>
<symbol id="bed" width="20.000000" height="20.000000" viewBox="0 0 20 20" fill="none" xmlns="http://www.w3.org/2000/svg" xmlns:xlink="http://www.w3.org/1999/xlink">
	<desc>
			Created with Pixso.
	</desc>
	<defs>
		<clipPath id="clip3_2658">
			<rect id="Container" width="20.000000" height="20.000000" fill="white" fill-opacity="0"/>
		</clipPath>
	</defs>
	<rect id="Container" width="20.000000" height="20.000000" fill="#FFFFFF" fill-opacity="0"/>
	<g clip-path="url(#clip3_2658)">
		<path id="Vector" d="M3.75 9.37L3.75 5.31C3.75 4.89 3.91 4.5 4.2 4.2C4.5 3.91 4.89 3.75 5.31 3.75L14.68 3.75C15.1 3.75 15.49 3.91 15.79 4.2C16.08 4.5 16.24 4.89 16.25 5.31L16.25 9.37L15 9.37L3.75 9.37ZM1.87 16.25L1.87 11.87C1.87 11.21 2.14 10.57 2.6 10.1C3.07 9.64 3.71 9.37 4.37 9.37L15.62 9.37C16.28 9.37 16.92 9.64 17.39 10.1C17.85 10.57 18.12 11.21 18.12 11.87L18.12 16.25" stroke="#101828" stroke-opacity="1.000000" stroke-width="1.400000" stroke-linejoin="round" stroke-linecap="round"/>
		<path id="Vector" d="M1.87 16.25L1.87 15.93C1.87 15.68 1.97 15.45 2.15 15.27C2.32 15.09 2.56 15 2.81 15L17.18 15C17.43 15 17.67 15.09 17.84 15.27C18.02 15.45 18.12 15.68 18.12 15.93L18.12 16.25M4.37 9.37L4.37 8.75C4.37 8.41 4.5 8.1 4.74 7.86C4.97 7.63 5.29 7.5 5.62 7.5L8.75 7.5C9.08 7.5 9.39 7.63 9.63 7.86C9.86 8.1 9.99 8.41 10 8.75L10 9.37M10 8.75C10 8.41 10.13 8.1 10.36 7.86C10.6 7.63 10.91 7.5 11.25 7.5L14.37 7.5C14.7 7.5 15.02 7.63 15.25 7.86C15.49 8.1 15.62 8.41 15.62 8.75L15.62 9.37" stroke="#101828" stroke-opacity="1.000000" stroke-width="1.400000" stroke-linejoin="round"/>
	</g>
</symbol>
<symbol id="airConditioner" viewBox="0 0 20 20" fill="none" xmlns="http://www.w3.org/2000/svg" xmlns:xlink="http://www.w3.org/1999/xlink">
	<desc>
			Created with Pixso.
	</desc>
	<defs>
		<clipPath id="clip11_7844">
			<rect id="Vertical container" width="20.000000" height="20.000000" fill="white" fill-opacity="0"/>
		</clipPath>
	</defs>
	<rect id="Vertical container" width="20.000000" height="20.000000" fill="#FFFFFF" fill-opacity="0"/>
	<g clip-path="url(#clip11_7844)">
		<path id="Vector" d="M9.68 2C8.75 2 7.84 2.32 7.11 2.9C6.39 3.49 5.89 4.3 5.7 5.21L5.63 5.57C5.61 5.65 5.61 5.73 5.62 5.81C5.64 5.89 5.67 5.97 5.71 6.04C5.76 6.11 5.82 6.17 5.89 6.22C5.96 6.26 6.04 6.3 6.12 6.31C6.2 6.33 6.29 6.33 6.37 6.31C6.45 6.29 6.53 6.26 6.6 6.21C6.67 6.17 6.72 6.11 6.77 6.04C6.81 5.97 6.84 5.89 6.86 5.81L6.93 5.45C7.07 4.78 7.46 4.18 8.02 3.77C8.58 3.37 9.27 3.18 9.96 3.25C10.66 3.32 11.3 3.63 11.77 4.14C12.23 4.65 12.49 5.31 12.5 5.99C12.5 6.73 12.2 7.43 11.67 7.95C11.14 8.47 10.43 8.76 9.68 8.76L0.62 8.76C0.45 8.76 0.3 8.83 0.18 8.94C0.06 9.06 0 9.22 0 9.38C0 9.54 0.06 9.7 0.18 9.81C0.3 9.93 0.45 10 0.62 10L9.68 10C10.74 9.97 11.75 9.54 12.49 8.79C13.23 8.04 13.65 7.04 13.65 6C13.65 4.95 13.23 3.95 12.49 3.2C11.75 2.45 10.75 2.02 9.68 2ZM16.87 7.53C16.04 7.53 15.25 7.86 14.66 8.43C14.07 9.01 13.75 9.79 13.75 10.61C13.75 10.77 13.81 10.93 13.93 11.05C14.05 11.16 14.2 11.23 14.37 11.23C14.54 11.23 14.69 11.16 14.81 11.05C14.93 10.93 15 10.77 15 10.61C15 10.25 15.1 9.89 15.31 9.58C15.52 9.28 15.81 9.04 16.15 8.9C16.5 8.77 16.87 8.73 17.24 8.8C17.6 8.87 17.93 9.05 18.2 9.3C18.46 9.56 18.64 9.89 18.71 10.25C18.78 10.61 18.74 10.98 18.6 11.32C18.46 11.65 18.22 11.94 17.91 12.15C17.6 12.35 17.24 12.46 16.87 12.46L0.62 12.46C0.45 12.46 0.3 12.52 0.18 12.64C0.06 12.75 0 12.91 0 13.07C0 13.24 0.06 13.39 0.18 13.51C0.3 13.62 0.45 13.69 0.62 13.69L12.81 13.69C13.22 13.69 13.62 13.85 13.91 14.14C14.2 14.43 14.37 14.82 14.37 15.23C14.37 15.64 14.2 16.03 13.91 16.32C13.61 16.6 13.22 16.77 12.8 16.76C12.43 16.76 12.07 16.63 11.78 16.4C11.5 16.16 11.31 15.83 11.24 15.47L11.24 15.43C11.23 15.35 11.2 15.27 11.15 15.2C11.11 15.13 11.06 15.07 10.99 15.02C10.92 14.97 10.84 14.94 10.76 14.92C10.68 14.9 10.6 14.89 10.51 14.91C10.43 14.92 10.35 14.95 10.28 15C10.21 15.04 10.15 15.1 10.1 15.16C10.06 15.23 10.02 15.31 10.01 15.39C9.99 15.47 9.99 15.55 10 15.63L10.01 15.67C10.12 16.32 10.46 16.91 10.97 17.34C11.48 17.76 12.13 18 12.8 18C13.55 18 14.26 17.7 14.79 17.18C15.32 16.67 15.62 15.96 15.62 15.23C15.62 14.66 15.45 14.13 15.15 13.69L16.87 13.69C17.7 13.69 18.49 13.36 19.08 12.79C19.67 12.21 20 11.43 20 10.61C20 9.79 19.67 9.01 19.08 8.43C18.49 7.86 17.7 7.53 16.87 7.53Z" fill="#101828" fill-opacity="1.000000" fill-rule="nonzero"/>
		<path id="Vector" d="M12.84 3.6C12.73 3.46 12.62 3.33 12.49 3.2C11.75 2.45 10.75 2.02 9.68 2C9.36 2 9.04 2.03 8.74 2.11C8.14 2.25 7.59 2.52 7.11 2.9C6.8 3.15 6.54 3.44 6.32 3.76C6.06 4.14 5.87 4.55 5.75 5C5.74 5.07 5.72 5.14 5.7 5.21L5.63 5.57C5.61 5.65 5.61 5.73 5.62 5.81C5.64 5.89 5.67 5.97 5.71 6.04C5.76 6.11 5.82 6.17 5.89 6.22C5.96 6.26 6.04 6.3 6.12 6.31C6.2 6.33 6.29 6.33 6.37 6.31C6.45 6.29 6.53 6.26 6.6 6.21C6.67 6.17 6.72 6.11 6.77 6.04C6.81 5.97 6.84 5.89 6.86 5.81L6.93 5.45C6.96 5.29 7.01 5.14 7.07 5C7.26 4.51 7.59 4.09 8.02 3.77C8.02 3.77 8.03 3.77 8.03 3.76C8.5 3.42 9.07 3.24 9.65 3.23C9.66 3.23 9.67 3.23 9.69 3.23C9.74 3.23 9.8 3.24 9.86 3.24C9.89 3.24 9.93 3.24 9.96 3.25C10.66 3.32 11.3 3.63 11.77 4.14C11.8 4.18 11.83 4.21 11.86 4.25C12.14 4.58 12.33 4.97 12.43 5.39C12.47 5.58 12.49 5.79 12.5 5.99C12.5 6.23 12.46 6.47 12.4 6.69C12.33 6.96 12.22 7.22 12.07 7.46C11.96 7.63 11.82 7.8 11.67 7.95C11.53 8.09 11.39 8.21 11.23 8.31C10.99 8.46 10.73 8.58 10.45 8.66C10.41 8.67 10.38 8.68 10.34 8.69C10.32 8.69 10.29 8.7 10.27 8.7C10.08 8.74 9.88 8.76 9.68 8.76L0.62 8.76C0.45 8.76 0.3 8.83 0.18 8.94C0.06 9.06 0 9.22 0 9.38C0 9.54 0.06 9.7 0.18 9.81C0.3 9.93 0.45 10 0.62 10L9.68 10C9.75 9.99 9.82 9.99 9.89 9.98C9.93 9.98 9.98 9.98 10.02 9.97C10.03 9.97 10.04 9.97 10.04 9.97C10.18 9.95 10.33 9.93 10.46 9.9C11.23 9.73 11.94 9.35 12.49 8.79C12.52 8.76 12.56 8.72 12.59 8.69C12.92 8.32 13.19 7.91 13.37 7.46C13.51 7.08 13.61 6.69 13.64 6.29C13.64 6.19 13.65 6.09 13.65 6C13.65 5.55 13.57 5.1 13.42 4.69C13.29 4.3 13.09 3.93 12.84 3.6ZM17.33 7.57C17.18 7.54 17.03 7.53 16.87 7.53C16.04 7.53 15.25 7.86 14.66 8.43C14.58 8.52 14.5 8.6 14.43 8.69C14.39 8.74 14.34 8.8 14.3 8.86C13.94 9.37 13.75 9.98 13.75 10.61C13.75 10.71 13.77 10.81 13.82 10.9C13.85 10.95 13.88 11 13.93 11.05C14.01 11.13 14.12 11.18 14.23 11.21C14.27 11.22 14.32 11.23 14.37 11.23C14.54 11.23 14.69 11.16 14.81 11.05C14.93 10.93 15 10.77 15 10.61C15 10.25 15.1 9.89 15.31 9.58C15.38 9.48 15.47 9.38 15.56 9.29C15.73 9.13 15.93 9 16.15 8.9C16.42 8.8 16.7 8.75 16.98 8.77C17.07 8.77 17.15 8.78 17.24 8.8C17.54 8.86 17.82 8.99 18.06 9.18C18.11 9.22 18.15 9.26 18.2 9.3C18.46 9.56 18.64 9.89 18.71 10.25C18.73 10.37 18.74 10.49 18.75 10.61L18.75 10.61L18.75 10.62C18.74 10.86 18.7 11.09 18.6 11.32C18.6 11.33 18.59 11.34 18.59 11.35C18.53 11.49 18.45 11.62 18.36 11.74C18.23 11.89 18.08 12.03 17.91 12.15C17.63 12.33 17.3 12.44 16.96 12.45C16.93 12.46 16.9 12.46 16.87 12.46L0.62 12.46C0.45 12.46 0.3 12.52 0.18 12.64C0.06 12.75 0 12.91 0 13.07C0 13.24 0.06 13.39 0.18 13.51C0.3 13.62 0.45 13.69 0.62 13.69L12.81 13.69C13.15 13.69 13.47 13.8 13.74 13.99C13.8 14.04 13.86 14.09 13.91 14.14C14.13 14.35 14.27 14.62 14.33 14.91C14.34 14.94 14.35 14.97 14.35 15C14.36 15.08 14.37 15.15 14.37 15.23C14.37 15.59 14.24 15.94 14 16.21C13.97 16.25 13.94 16.28 13.91 16.32C13.61 16.6 13.22 16.77 12.8 16.76C12.43 16.76 12.07 16.63 11.78 16.4C11.5 16.16 11.31 15.83 11.24 15.47L11.24 15.43C11.23 15.36 11.2 15.29 11.17 15.23C11.17 15.22 11.16 15.21 11.15 15.2C11.11 15.13 11.06 15.07 10.99 15.02C10.92 14.97 10.85 14.94 10.77 14.92C10.77 14.92 10.77 14.92 10.76 14.92C10.76 14.92 10.76 14.92 10.76 14.92C10.72 14.91 10.68 14.9 10.64 14.9C10.6 14.9 10.56 14.9 10.51 14.91C10.45 14.92 10.39 14.94 10.34 14.97C10.32 14.97 10.3 14.98 10.28 15C10.21 15.04 10.15 15.1 10.1 15.16L10.1 15.16C10.06 15.23 10.02 15.31 10.01 15.39C9.99 15.47 9.99 15.55 10 15.63L10.01 15.67C10.12 16.32 10.46 16.91 10.97 17.34C11.02 17.38 11.08 17.42 11.13 17.46C11.61 17.81 12.2 18 12.8 18C13.41 18 13.99 17.8 14.47 17.46C14.51 17.43 14.54 17.4 14.58 17.37C14.65 17.31 14.73 17.25 14.79 17.18C14.93 17.05 15.04 16.91 15.15 16.76C15.28 16.56 15.39 16.35 15.47 16.12C15.57 15.83 15.62 15.53 15.62 15.23C15.62 15.09 15.61 14.96 15.59 14.83C15.59 14.79 15.58 14.74 15.57 14.7C15.5 14.33 15.35 13.99 15.15 13.69L16.87 13.69C17.64 13.69 18.37 13.41 18.94 12.91C18.99 12.87 19.04 12.83 19.08 12.79C19.39 12.48 19.63 12.12 19.78 11.72C19.92 11.37 20 11 20 10.61C20 9.79 19.67 9.01 19.08 8.43C18.89 8.24 18.67 8.08 18.43 7.95C18.16 7.79 17.87 7.68 17.56 7.61C17.49 7.59 17.41 7.58 17.33 7.57Z" fill="#101828" fill-opacity="1.000000" fill-rule="evenodd"/>
	</g>
</symbol>
<symbol id="close" width="32.000000" height="32.000000" viewBox="0 0 32 32" fill="none" xmlns="http://www.w3.org/2000/svg" xmlns:xlink="http://www.w3.org/1999/xlink">
	
		<path id="Vector" d="M24 8L8 24" stroke-opacity="1.000000" stroke-width="3.000000" stroke-linejoin="round" stroke-linecap="round"/>
		<path id="Vector" d="M8 8L24 24" stroke-opacity="1.000000" stroke-width="3.000000" stroke-linejoin="round" stroke-linecap="round"/>

</symbol>
<symbol id="condition" width="20.000000" height="20.000000" viewBox="0 0 20 20" fill="none" xmlns="http://www.w3.org/2000/svg" xmlns:xlink="http://www.w3.org/1999/xlink">
	<desc>
			Created with Pixso.
	</desc>
	<defs>
		<clipPath id="clip45_422">
			<rect id="streamline:hotel-air-conditioner" width="20.000000" height="20.000000" fill="white" fill-opacity="0"/>
		</clipPath>
	</defs>
	<rect id="streamline:hotel-air-conditioner" width="20.000000" height="20.000000" fill="#FFFFFF" fill-opacity="0"/>
	<g clip-path="url(#clip45_422)">
		<path id="Vector" d="M2.14 0.71C1.76 0.71 1.4 0.86 1.13 1.13C0.86 1.4 0.71 1.76 0.71 2.14L0.71 9.28C0.71 9.66 0.86 10.02 1.13 10.29C1.4 10.56 1.76 10.71 2.14 10.71L17.85 10.71C18.23 10.71 18.59 10.56 18.86 10.29C19.13 10.02 19.28 9.66 19.28 9.28L19.28 2.14C19.28 1.76 19.13 1.4 18.86 1.13C18.59 0.86 18.23 0.71 17.85 0.71L2.14 0.71Z" stroke="#101828" stroke-opacity="1.000000" stroke-width="1.500000" stroke-linejoin="round"/>
		<path id="Vector" d="M15.71 10.71L15.71 7.85C15.71 7.47 15.56 7.11 15.29 6.84C15.02 6.57 14.66 6.42 14.28 6.42L5.71 6.42C5.33 6.42 4.97 6.57 4.7 6.84C4.43 7.11 4.28 7.47 4.28 7.85L4.28 10.71M3.57 17.85L3.71 17.85C4.24 17.85 4.75 17.64 5.12 17.27C5.5 16.89 5.71 16.38 5.71 15.85L5.71 14.28M16.42 17.85L16.28 17.85C15.75 17.85 15.24 17.64 14.87 17.27C14.49 16.89 14.28 16.38 14.28 15.85L14.28 14.28M10 19.28L10 14.28" stroke="#101828" stroke-opacity="1.000000" stroke-width="1.500000" stroke-linejoin="round"/>
	</g>
</symbol>
<symbol id="CD" width="20.000000" height="20.000000" viewBox="0 0 20 20" fill="none" xmlns="http://www.w3.org/2000/svg" xmlns:xlink="http://www.w3.org/1999/xlink">
	<desc>
			Created with Pixso.
	</desc>
	<defs>
		<clipPath id="clip45_481">
			<rect id="icon-park-outline:cd" width="20.000000" height="20.000000" fill="white" fill-opacity="0"/>
		</clipPath>
	</defs>
	<rect id="icon-park-outline:cd" width="20.000000" height="20.000000" fill="#FFFFFF" fill-opacity="0"/>
	<g clip-path="url(#clip45_481)">
		<path id="Vector" d="M10 17.5C5.85 17.5 2.5 14.14 2.5 10C2.5 5.85 5.85 2.5 10 2.5C14.14 2.5 17.5 5.85 17.5 10C17.5 14.14 14.14 17.5 10 17.5Z" stroke="#101828" stroke-opacity="1.000000" stroke-width="1.500000"/>
		<path id="Vector" d="M5.41 10C5.41 7.46 7.46 5.41 10 5.41" stroke="#101828" stroke-opacity="1.000000" stroke-width="1.500000" stroke-linecap="round"/>
		<path id="Vector" d="M10 12.08C8.84 12.08 7.91 11.15 7.91 9.99C7.91 8.84 8.84 7.91 10 7.91C11.15 7.91 12.08 8.84 12.08 9.99C12.08 11.15 11.15 12.08 10 12.08Z" stroke="#101828" stroke-opacity="1.000000" stroke-width="1.500000"/>
	</g>
</symbol>
<symbol id="TV" viewBox="0 0 32 32" fill="none" xmlns="http://www.w3.org/2000/svg" xmlns:xlink="http://www.w3.org/1999/xlink">
	<desc>
			Created with Pixso.
	</desc>
	<defs>
		<clipPath id="clip18_11594">
			<rect id="Vertical container" width="32.000000" height="32.000000" fill="white" fill-opacity="0"/>
		</clipPath>
	</defs>
	<rect id="Vertical container" width="32.000000" height="32.000000" fill="#FFFFFF" fill-opacity="0"/>
	<g clip-path="url(#clip18_11594)">
		<path id="Vector" d="M8 26C5.78 26 4 24.21 4 22L4 12C4 9.78 5.78 8 8 8L24 8C26.21 8 28 9.78 28 12L28 22C28 24.21 26.21 26 24 26L8 26Z" stroke="#101828" stroke-opacity="1.000000" stroke-width="1.800000" stroke-linejoin="round"/>
		<path id="Vector" d="M12 30L20 30" stroke="#101828" stroke-opacity="1.000000" stroke-width="1.800000" stroke-linejoin="round" stroke-linecap="round"/>
		<path id="Vector" d="M16 8L22 2" stroke="#101828" stroke-opacity="1.000000" stroke-width="1.800000" stroke-linejoin="round" stroke-linecap="round"/>
		<path id="Vector" d="M16 8L10 2" stroke="#101828" stroke-opacity="1.000000" stroke-width="1.800000" stroke-linejoin="round" stroke-linecap="round"/>
	</g>
</symbol>
<symbol id="radio" width="20.000000" height="20.000000" viewBox="0 0 20 20" fill="none" xmlns="http://www.w3.org/2000/svg" xmlns:xlink="http://www.w3.org/1999/xlink">
	<desc>
			Created with Pixso.
	</desc>
	<defs>
		<clipPath id="clip45_486">
			<rect id="solar:radio-linear" width="20.000000" height="20.000000" fill="white" fill-opacity="0"/>
		</clipPath>
	</defs>
	<rect id="solar:radio-linear" width="20.000000" height="20.000000" fill="#FFFFFF" fill-opacity="0"/>
	<g clip-path="url(#clip45_486)">
		<path id="Vector" d="M2.64 5.97C3.61 5 5.19 5 8.33 5L11.66 5C14.8 5 16.38 5 17.35 5.97C18.33 6.95 18.33 8.52 18.33 11.66C18.33 14.8 18.33 16.38 17.35 17.35C16.38 18.33 14.8 18.33 11.66 18.33L8.33 18.33C5.19 18.33 3.61 18.33 2.64 17.35C1.66 16.38 1.66 14.8 1.66 11.66C1.66 8.52 1.66 6.95 2.64 5.97Z" stroke="#101828" stroke-opacity="1.000000" stroke-width="1.300000"/>
		<path id="Vector" d="M4.65 7.98C4.96 7.67 5.39 7.5 5.83 7.5L14.16 7.5C14.6 7.5 15.03 7.67 15.34 7.98C15.65 8.3 15.83 8.72 15.83 9.16C15.83 9.6 15.65 10.03 15.34 10.34C15.03 10.65 14.6 10.83 14.16 10.83L5.83 10.83C5.39 10.83 4.96 10.65 4.65 10.34C4.34 10.03 4.16 9.6 4.16 9.16C4.16 8.72 4.34 8.3 4.65 7.98ZM7.13 15.05C6.89 15.28 6.58 15.41 6.25 15.41C5.91 15.41 5.6 15.28 5.36 15.05C5.13 14.81 5 14.49 5 14.16C5 13.83 5.13 13.51 5.36 13.28C5.6 13.04 5.91 12.91 6.25 12.91C6.58 12.91 6.89 13.04 7.13 13.28C7.36 13.51 7.5 13.83 7.5 14.16C7.5 14.49 7.36 14.81 7.13 15.05Z" stroke="#101828" stroke-opacity="1.000000" stroke-width="1.300000"/>
		<path id="Vector" d="M12.5 9.58L12.5 10.83M10.83 14.16L15 14.16M5.41 4.99L12.5 1.66" stroke="#101828" stroke-opacity="1.000000" stroke-width="1.300000"/>
	</g>
</symbol>
<symbol id="hob" width="20.000000" height="20.000000" viewBox="0 0 20 20" fill="none" xmlns="http://www.w3.org/2000/svg" xmlns:xlink="http://www.w3.org/1999/xlink">
	<desc>
			Created with Pixso.
	</desc>
	<defs>
		<clipPath id="clip45_497">
			<rect id="icon-park-outline:hand-painted-plate" width="20.000000" height="20.000000" fill="white" fill-opacity="0"/>
		</clipPath>
	</defs>
	<rect id="icon-park-outline:hand-painted-plate" width="20.000000" height="20.000000" fill="#FFFFFF" fill-opacity="0"/>
	<g clip-path="url(#clip45_497)">
		<path id="Vector" d="M17.5 4.16C17.72 4.16 17.93 4.25 18.08 4.41C18.24 4.56 18.33 4.77 18.33 5L18.33 15.83C18.33 16.05 18.24 16.26 18.08 16.42C17.93 16.57 17.72 16.66 17.5 16.66L7.5 16.66L2.5 16.66C2.27 16.66 2.06 16.57 1.91 16.42C1.75 16.26 1.66 16.05 1.66 15.83L1.66 5C1.66 4.77 1.75 4.56 1.91 4.41C2.06 4.25 2.27 4.16 2.5 4.16L7.5 4.16L17.5 4.16ZM7.5 4.16L7.5 16.66" stroke="#101828" stroke-opacity="1.000000" stroke-width="1.500000"/>
		<path id="Vector" d="M4.58 7.08L4.58 8.75M15.41 6.66L10.41 13.75" stroke="#101828" stroke-opacity="1.000000" stroke-width="1.500000" stroke-linejoin="round"/>
		<path id="Vector" d="M4.58 10.41C5.04 10.41 5.41 10.78 5.41 11.25C5.41 11.71 5.04 12.08 4.58 12.08C4.12 12.08 3.75 11.71 3.75 11.25C3.75 10.78 4.12 10.41 4.58 10.41Z" fill="#101828" fill-opacity="1.000000" fill-rule="evenodd"/>
		<path id="Vector" d="M4.58 12.91C5.04 12.91 5.41 13.28 5.41 13.75C5.41 14.21 5.04 14.58 4.58 14.58C4.12 14.58 3.75 14.21 3.75 13.75C3.75 13.28 4.12 12.91 4.58 12.91Z" fill="#101828" fill-opacity="1.000000" fill-rule="evenodd"/>
	</g>
</symbol>
<symbol id="shower" viewBox="0 0 32 32" fill="none" xmlns="http://www.w3.org/2000/svg">
<path d="M5.33325 5.33333L8.66659 8.66666M17.9999 8.66666C16.758 7.44957 15.0859 6.77177 13.3471 6.78055C11.6082 6.78934 9.94306 7.48399 8.71349 8.71356C7.48391 9.94314 6.78926 11.6083 6.78048 13.3471C6.77169 15.086 7.44949 16.7581 8.66659 18M19.9999 6.66666L6.66659 20M18.6666 22.6667V22.68M13.3333 21.3333V21.3467M17.3333 17.3333V17.3467M21.3333 13.3333V13.3467M14.6666 26.6667V26.68M22.6666 18.6667V18.68M26.6666 14.6667V14.68" stroke="#101828" stroke-width="2" stroke-linecap="round" stroke-linejoin="round"/>
</symbol>
<symbol id="calendar" width="20.000000" height="20.000000" viewBox="0 0 20 20" fill="none" xmlns="http://www.w3.org/2000/svg" xmlns:xlink="http://www.w3.org/1999/xlink">
	<desc>
			Created with Pixso.
	</desc>
	<defs>
		<clipPath id="clip46_958">
			<rect id="Button" width="20.000000" height="20.000000" fill="white" fill-opacity="0"/>
		</clipPath>
	</defs>
	<rect id="Button" width="20.000000" height="20.000000" fill="#FFFFFF" fill-opacity="0"/>
	<g clip-path="url(#clip46_958)">
		<path id="Vector" d="M15.83 3.33C16.75 3.33 17.5 4.07 17.5 5L17.5 16.66C17.5 17.58 16.75 18.33 15.83 18.33L4.16 18.33C3.24 18.33 2.5 17.58 2.5 16.66L2.5 5C2.5 4.07 3.24 3.33 4.16 3.33L15.83 3.33Z" stroke="#101828" stroke-opacity="1.000000" stroke-width="1.500000" stroke-linejoin="round"/>
		<path id="Vector" d="M13.33 1.66L13.33 5" stroke="#101828" stroke-opacity="1.000000" stroke-width="1.500000" stroke-linejoin="round" stroke-linecap="round"/>
		<path id="Vector" d="M6.66 1.66L6.66 5" stroke="#101828" stroke-opacity="1.000000" stroke-width="1.500000" stroke-linejoin="round" stroke-linecap="round"/>
		<path id="Vector" d="M2.5 8.33L17.5 8.33" stroke="#101828" stroke-opacity="1.000000" stroke-width="1.500000" stroke-linejoin="round" stroke-linecap="round"/>
	</g>
</symbol>
<symbol id="location-filter" width="18.000000" height="20.000000" viewBox="0 0 18 20" fill="none" xmlns="http://www.w3.org/2000/svg" xmlns:xlink="http://www.w3.org/1999/xlink">
	<desc>
			Created with Pixso.
	</desc>
	<defs>
		<clipPath id="clip45_248">
			<rect id="map-pin" width="18.000000" height="20.000000" fill="white" fill-opacity="0"/>
		</clipPath>
	</defs>
	<rect id="map-pin" width="18.000000" height="20.000000" fill="#FFFFFF" fill-opacity="0"/>
	<g clip-path="url(#clip45_248)">
		<path id="Vector" d="M9 19.16C9 19.16 1.5 14.16 1.5 8.33C1.5 6.34 2.29 4.43 3.69 3.03C5.1 1.62 7.01 0.83 9 0.83C10.98 0.83 12.89 1.62 14.3 3.03C15.7 4.43 16.5 6.34 16.5 8.33C16.5 14.16 9 19.16 9 19.16Z" stroke="#101828" stroke-opacity="1.000000" stroke-width="1.500000" stroke-linejoin="round"/>
		<path id="Vector" d="M9 10.83C7.61 10.83 6.5 9.71 6.5 8.33C6.5 6.95 7.61 5.83 9 5.83C10.38 5.83 11.5 6.95 11.5 8.33C11.5 9.71 10.38 10.83 9 10.83Z" stroke="#101828" stroke-opacity="1.000000" stroke-width="1.500000" stroke-linejoin="round"/>
	</g>
</symbol>
<symbol id="van" width="40.000000" height="28.000000" viewBox="0 0 40 28" fill="none" xmlns="http://www.w3.org/2000/svg" xmlns:xlink="http://www.w3.org/1999/xlink">
	<desc>
			Created with Pixso.
	</desc>
	<defs/>
	<path id="Vector" d="M2.28 1.57L13.13 1.57C13.23 1.57 13.31 1.53 13.38 1.47L14.42 0.45C14.72 0.16 15.13 0 15.56 0L32.02 0C32.79 0 33.5 0.37 33.92 0.99L35.9 3.88C36.18 4.29 36.2 4.81 35.97 5.25C35.73 5.68 35.27 5.95 34.76 5.95L26.28 5.95L26.28 6.79L30.62 6.79C31.77 6.79 32.81 7.45 33.26 8.49L35.81 14.31L38.04 15.18C39.23 15.64 40 16.75 40 18L40 23.39C40 24.19 39.32 24.85 38.5 24.85L35.91 24.85C35.61 26.63 34.01 28 32.1 28C30.19 28 28.6 26.63 28.29 24.85L14.12 24.85C13.81 26.63 12.22 28 10.31 28C8.4 28 6.81 26.63 6.5 24.85L1.32 24.85C0.59 24.85 0 24.26 0 23.55L0 3.8C0 2.57 1.02 1.57 2.28 1.57ZM32.1 26.76C33.53 26.76 34.7 25.63 34.7 24.23C34.7 22.83 33.53 21.7 32.1 21.7C30.67 21.7 29.5 22.83 29.5 24.23C29.5 25.63 30.67 26.76 32.1 26.76ZM26.28 23.62L28.29 23.62C28.3 23.58 28.31 23.55 28.31 23.52C28.32 23.5 28.32 23.48 28.32 23.46C28.33 23.41 28.35 23.37 28.36 23.32C28.36 23.31 28.36 23.3 28.36 23.29C28.38 23.23 28.4 23.17 28.41 23.12C28.42 23.1 28.43 23.09 28.43 23.07C28.44 23.03 28.46 22.99 28.47 22.95C28.48 22.93 28.49 22.91 28.5 22.89C28.51 22.86 28.52 22.82 28.54 22.79C28.55 22.77 28.56 22.74 28.57 22.72C28.58 22.69 28.59 22.66 28.61 22.63C28.62 22.61 28.63 22.58 28.64 22.56C28.66 22.53 28.67 22.5 28.69 22.47C28.7 22.45 28.71 22.43 28.73 22.41C28.74 22.38 28.76 22.35 28.78 22.32C28.79 22.3 28.8 22.28 28.82 22.26C28.84 22.23 28.85 22.2 28.87 22.17C28.89 22.15 28.9 22.13 28.91 22.11C28.93 22.08 28.96 22.05 28.98 22.02C28.99 22 29 21.99 29.02 21.97C29.05 21.93 29.08 21.89 29.11 21.85C29.12 21.85 29.12 21.84 29.13 21.84C29.16 21.79 29.2 21.75 29.24 21.71C29.25 21.69 29.27 21.68 29.28 21.67C29.31 21.64 29.33 21.61 29.36 21.58C29.38 21.57 29.4 21.55 29.41 21.53C29.44 21.51 29.46 21.49 29.49 21.46C29.51 21.45 29.53 21.43 29.54 21.41C29.57 21.39 29.6 21.37 29.62 21.35L29.68 21.3C29.71 21.28 29.73 21.26 29.76 21.24C29.78 21.22 29.8 21.21 29.82 21.2C29.85 21.18 29.88 21.16 29.91 21.14C29.93 21.12 29.95 21.11 29.97 21.1C30 21.08 30.03 21.06 30.06 21.04C30.08 21.03 30.1 21.01 30.12 21C30.15 20.98 30.19 20.96 30.22 20.95C30.24 20.94 30.25 20.93 30.27 20.92C30.32 20.89 30.37 20.87 30.42 20.84C30.42 20.84 30.43 20.84 30.43 20.84C30.48 20.81 30.54 20.79 30.59 20.77C30.61 20.76 30.63 20.75 30.65 20.74C30.68 20.73 30.72 20.72 30.76 20.7C30.78 20.69 30.8 20.69 30.83 20.68C30.86 20.67 30.89 20.65 30.93 20.64C30.95 20.64 30.98 20.63 31 20.62C31.04 20.61 31.07 20.6 31.1 20.59C31.13 20.59 31.15 20.58 31.18 20.58C31.21 20.57 31.25 20.56 31.28 20.55C31.31 20.55 31.33 20.54 31.36 20.54C31.39 20.53 31.43 20.52 31.47 20.52C31.49 20.51 31.52 20.51 31.54 20.51C31.58 20.5 31.62 20.5 31.65 20.49C31.68 20.49 31.7 20.49 31.73 20.48C31.77 20.48 31.81 20.48 31.85 20.47C31.87 20.47 31.89 20.47 31.91 20.47C31.97 20.47 32.04 20.47 32.1 20.47C32.16 20.47 32.23 20.47 32.29 20.47C32.31 20.47 32.33 20.47 32.35 20.47C32.39 20.48 32.44 20.48 32.48 20.48C32.5 20.49 32.53 20.49 32.55 20.49C32.59 20.5 32.62 20.5 32.66 20.51C32.69 20.51 32.71 20.51 32.74 20.52C32.77 20.52 32.81 20.53 32.84 20.54C32.87 20.54 32.89 20.55 32.92 20.55C32.95 20.56 32.99 20.57 33.02 20.58C33.05 20.58 33.07 20.59 33.1 20.59C33.13 20.6 33.17 20.61 33.2 20.62C33.22 20.63 33.25 20.64 33.27 20.64C33.31 20.65 33.34 20.67 33.38 20.68C33.4 20.69 33.42 20.69 33.44 20.7C33.48 20.72 33.52 20.73 33.56 20.74C33.57 20.75 33.59 20.76 33.61 20.77C33.66 20.79 33.72 20.81 33.77 20.84C33.78 20.84 33.78 20.84 33.78 20.84C33.83 20.87 33.88 20.89 33.93 20.92C33.95 20.93 33.96 20.94 33.98 20.95C34.02 20.96 34.05 20.98 34.08 21C34.1 21.01 34.12 21.03 34.14 21.04C34.17 21.06 34.2 21.08 34.23 21.1C34.25 21.11 34.28 21.12 34.3 21.14C34.32 21.16 34.35 21.18 34.38 21.2C34.4 21.21 34.42 21.22 34.44 21.24C34.47 21.26 34.49 21.28 34.52 21.3L34.58 21.35C34.61 21.37 34.63 21.39 34.66 21.41C34.68 21.43 34.69 21.45 34.71 21.46C34.74 21.49 34.76 21.51 34.79 21.53C34.81 21.55 34.82 21.57 34.84 21.58C34.87 21.61 34.9 21.64 34.92 21.67C34.94 21.68 34.95 21.69 34.96 21.71C35 21.75 35.04 21.79 35.08 21.84C35.08 21.84 35.09 21.85 35.09 21.85C35.12 21.89 35.15 21.93 35.19 21.97C35.2 21.99 35.21 22 35.22 22.02C35.24 22.05 35.27 22.08 35.29 22.11C35.3 22.13 35.31 22.15 35.33 22.17C35.35 22.2 35.37 22.23 35.39 22.26C35.4 22.28 35.41 22.3 35.42 22.32C35.44 22.35 35.46 22.38 35.48 22.41C35.49 22.43 35.5 22.45 35.51 22.47C35.53 22.5 35.54 22.53 35.56 22.56C35.57 22.58 35.58 22.61 35.59 22.63C35.61 22.66 35.62 22.69 35.64 22.72C35.65 22.74 35.66 22.77 35.66 22.79C35.68 22.82 35.69 22.86 35.71 22.89C35.71 22.91 35.72 22.93 35.73 22.95C35.74 22.99 35.76 23.03 35.77 23.07C35.78 23.09 35.78 23.1 35.79 23.12C35.81 23.17 35.82 23.23 35.84 23.29C35.84 23.3 35.84 23.31 35.84 23.32C35.86 23.37 35.87 23.41 35.88 23.46C35.88 23.48 35.89 23.5 35.89 23.52C35.9 23.55 35.9 23.58 35.91 23.62L38.5 23.62C38.63 23.62 38.73 23.51 38.73 23.39L38.73 20.81L37.75 20.81L37.75 19.58L38.73 19.58L38.73 18C38.73 17.25 38.28 16.59 37.57 16.32L35.21 15.4L26.28 15.4L26.28 23.62ZM26.28 14.17L34.37 14.17L32.1 8.97C31.85 8.39 31.27 8.02 30.62 8.02L26.28 8.02L26.28 14.17ZM10.31 26.76C11.74 26.76 12.91 25.63 12.91 24.23C12.91 22.83 11.74 21.7 10.31 21.7C10.27 21.7 10.22 21.7 10.18 21.7C8.98 21.76 8 22.61 7.77 23.72C7.76 23.76 7.75 23.8 7.74 23.85C7.73 23.93 7.72 24.01 7.72 24.1C7.71 24.14 7.71 24.19 7.71 24.23C7.71 25.63 8.88 26.76 10.31 26.76ZM1.26 19.58L2.24 19.58L2.24 20.81L1.26 20.81L1.26 23.55C1.26 23.59 1.29 23.62 1.32 23.62L6.5 23.62C6.51 23.58 6.51 23.55 6.52 23.52C6.52 23.5 6.53 23.48 6.53 23.46C6.54 23.41 6.55 23.37 6.57 23.32C6.57 23.31 6.57 23.3 6.57 23.29C6.59 23.23 6.61 23.18 6.62 23.12C6.63 23.1 6.64 23.08 6.64 23.07C6.65 23.03 6.67 22.99 6.68 22.95C6.69 22.93 6.7 22.91 6.71 22.89C6.72 22.86 6.73 22.82 6.75 22.79C6.76 22.77 6.77 22.74 6.78 22.72C6.79 22.69 6.8 22.66 6.82 22.63C6.83 22.61 6.84 22.58 6.85 22.56C6.87 22.53 6.88 22.5 6.9 22.47C6.91 22.45 6.92 22.43 6.94 22.41C6.95 22.38 6.97 22.35 6.99 22.32C7 22.3 7.01 22.28 7.03 22.26C7.04 22.23 7.06 22.2 7.08 22.17C7.1 22.15 7.11 22.13 7.12 22.11C7.14 22.08 7.17 22.05 7.19 22.02C7.2 22 7.21 21.99 7.23 21.97C7.26 21.93 7.29 21.89 7.32 21.86C7.32 21.85 7.33 21.84 7.33 21.84C7.37 21.79 7.41 21.75 7.45 21.71C7.46 21.69 7.48 21.68 7.49 21.67C7.52 21.64 7.54 21.61 7.57 21.58C7.59 21.57 7.6 21.55 7.62 21.53C7.65 21.51 7.67 21.49 7.7 21.46C7.72 21.45 7.74 21.43 7.75 21.41C7.78 21.39 7.81 21.37 7.83 21.35C7.85 21.33 7.87 21.32 7.89 21.3C7.92 21.28 7.94 21.26 7.97 21.24C7.99 21.22 8.01 21.21 8.03 21.2C8.06 21.18 8.09 21.16 8.12 21.14C8.14 21.12 8.16 21.11 8.18 21.1C8.21 21.08 8.24 21.06 8.27 21.04C8.29 21.03 8.31 21.01 8.33 21C8.36 20.98 8.39 20.96 8.43 20.95C8.45 20.94 8.46 20.93 8.48 20.92C8.53 20.89 8.58 20.87 8.63 20.84C8.63 20.84 8.64 20.84 8.64 20.84C8.69 20.81 8.75 20.79 8.8 20.77C8.82 20.76 8.84 20.75 8.86 20.74C8.89 20.73 8.93 20.72 8.97 20.7C8.99 20.69 9.01 20.69 9.04 20.68C9.07 20.67 9.1 20.65 9.14 20.64C9.16 20.64 9.19 20.63 9.21 20.62C9.25 20.61 9.28 20.6 9.31 20.59C9.34 20.59 9.36 20.58 9.39 20.58C9.42 20.57 9.46 20.56 9.49 20.55C9.52 20.55 9.54 20.54 9.57 20.54C9.6 20.53 9.64 20.52 9.67 20.52C9.7 20.51 9.72 20.51 9.75 20.51C9.79 20.5 9.82 20.5 9.86 20.49C9.89 20.49 9.91 20.49 9.93 20.48C9.98 20.48 10.02 20.48 10.06 20.47C10.08 20.47 10.1 20.47 10.12 20.47C10.18 20.47 10.25 20.47 10.31 20.47C10.37 20.47 10.44 20.47 10.5 20.47C10.52 20.47 10.54 20.47 10.56 20.47C10.6 20.48 10.64 20.48 10.69 20.48C10.71 20.49 10.73 20.49 10.76 20.49C10.8 20.5 10.83 20.5 10.87 20.51C10.9 20.51 10.92 20.51 10.95 20.52C10.98 20.52 11.02 20.53 11.05 20.54C11.08 20.54 11.1 20.55 11.13 20.55C11.16 20.56 11.2 20.57 11.23 20.58C11.26 20.58 11.28 20.59 11.31 20.59C11.34 20.6 11.38 20.61 11.41 20.62C11.43 20.63 11.46 20.64 11.48 20.64C11.52 20.65 11.55 20.67 11.59 20.68C11.61 20.69 11.63 20.69 11.65 20.7C11.69 20.72 11.73 20.73 11.77 20.74C11.78 20.75 11.8 20.76 11.82 20.77C11.87 20.79 11.93 20.81 11.98 20.84C11.99 20.84 11.99 20.84 11.99 20.84C12.04 20.87 12.09 20.89 12.14 20.92C12.16 20.93 12.17 20.94 12.19 20.95C12.23 20.96 12.26 20.98 12.29 21C12.31 21.01 12.33 21.03 12.35 21.04C12.38 21.06 12.41 21.08 12.44 21.1C12.46 21.11 12.48 21.12 12.51 21.14C12.53 21.16 12.56 21.18 12.59 21.2C12.61 21.21 12.63 21.22 12.65 21.24C12.68 21.26 12.7 21.28 12.73 21.3C12.75 21.32 12.77 21.33 12.79 21.35C12.81 21.37 12.84 21.39 12.87 21.41C12.88 21.43 12.9 21.45 12.92 21.46C12.95 21.49 12.97 21.51 13 21.53C13.02 21.55 13.03 21.57 13.05 21.58C13.08 21.61 13.11 21.64 13.13 21.67C13.15 21.68 13.16 21.69 13.17 21.71C13.21 21.75 13.25 21.79 13.29 21.84C13.29 21.84 13.3 21.85 13.3 21.85C13.33 21.89 13.36 21.93 13.39 21.97C13.41 21.99 13.42 22 13.43 22.02C13.45 22.05 13.48 22.08 13.5 22.11C13.51 22.13 13.52 22.15 13.54 22.17C13.56 22.2 13.58 22.23 13.59 22.26C13.61 22.28 13.62 22.3 13.63 22.32C13.65 22.35 13.67 22.38 13.68 22.41C13.7 22.43 13.71 22.45 13.72 22.47C13.74 22.5 13.75 22.53 13.77 22.56C13.78 22.58 13.79 22.61 13.8 22.63C13.82 22.66 13.83 22.69 13.84 22.72C13.85 22.74 13.86 22.77 13.87 22.79C13.89 22.82 13.9 22.86 13.92 22.89C13.92 22.91 13.93 22.93 13.94 22.95C13.95 22.99 13.97 23.03 13.98 23.07C13.99 23.09 13.99 23.1 14 23.12C14.01 23.17 14.03 23.23 14.05 23.29C14.05 23.3 14.05 23.31 14.05 23.32C14.07 23.36 14.08 23.41 14.09 23.46C14.09 23.48 14.1 23.5 14.1 23.52C14.11 23.55 14.11 23.58 14.12 23.62L25.01 23.62L25.01 5.33C25.01 4.99 25.3 4.72 25.64 4.72L34.76 4.72C34.78 4.72 34.82 4.72 34.85 4.66C34.88 4.61 34.86 4.57 34.85 4.56L32.88 1.67C32.68 1.39 32.37 1.23 32.02 1.23L15.56 1.23C15.46 1.23 15.38 1.26 15.31 1.32L14.27 2.34C13.97 2.64 13.56 2.8 13.13 2.8L2.28 2.8C1.71 2.8 1.26 3.25 1.26 3.8L1.26 19.58Z" fill="#101828" fill-opacity="1.000000" fill-rule="nonzero"/>
	<path id="Vector" d="M4.84 6.29L12.55 6.29C13.44 6.29 14.17 7 14.17 7.87L14.17 11.46C14.17 12.33 13.44 13.04 12.55 13.04L4.84 13.04C3.95 13.04 3.22 12.33 3.22 11.46L3.22 7.87C3.22 7 3.95 6.29 4.84 6.29ZM4.48 11.46C4.48 11.65 4.64 11.8 4.84 11.8L12.55 11.8C12.75 11.8 12.91 11.65 12.91 11.46L12.91 7.87C12.91 7.68 12.75 7.52 12.55 7.52L4.84 7.52C4.64 7.52 4.48 7.68 4.48 7.87L4.48 11.46Z" fill="#101828" fill-opacity="1.000000" fill-rule="nonzero"/>
</symbol>
<symbol id="full-integr" width="40.000000" height="28.000000" viewBox="0 0 40 28" fill="none" xmlns="http://www.w3.org/2000/svg" xmlns:xlink="http://www.w3.org/1999/xlink">
	<desc>
			Created with Pixso.
	</desc>
	<defs/>
	<path id="Vector" d="M2.28 1.07L13.13 1.07C13.23 1.07 13.31 1.03 13.38 0.97L14.42 -0.05C14.72 -0.34 15.13 -0.5 15.56 -0.5L32.02 -0.5C32.79 -0.5 33.5 -0.13 33.92 0.49L35.9 3.38C36.18 3.79 36.2 4.31 35.97 4.75C35.73 5.18 35.27 5.45 34.76 5.45L26.28 5.45L26.28 6.29L30.62 6.29C31.77 6.29 32.81 6.95 33.26 7.99L35.81 13.81L38.04 14.68C39.23 15.14 40 16.25 40 17.5L40 22.89C40 23.69 39.32 24.35 38.5 24.35L35.91 24.35C35.61 26.13 34.01 27.5 32.1 27.5C30.19 27.5 28.6 26.13 28.29 24.35L14.12 24.35C13.81 26.13 12.22 27.5 10.31 27.5C8.4 27.5 6.81 26.13 6.5 24.35L1.32 24.35C0.59 24.35 0 23.76 0 23.05L0 3.3C0 2.07 1.02 1.07 2.28 1.07ZM32.1 26.26C33.53 26.26 34.7 25.13 34.7 23.73C34.7 22.33 33.53 21.2 32.1 21.2C30.67 21.2 29.5 22.33 29.5 23.73C29.5 25.13 30.67 26.26 32.1 26.26ZM26.28 23.12L28.29 23.12C28.3 23.08 28.31 23.05 28.31 23.02C28.32 23 28.32 22.98 28.32 22.96C28.33 22.91 28.35 22.87 28.36 22.82C28.36 22.81 28.36 22.8 28.36 22.79C28.38 22.73 28.4 22.67 28.41 22.62C28.42 22.6 28.43 22.59 28.43 22.57C28.44 22.53 28.46 22.49 28.47 22.45C28.48 22.43 28.49 22.41 28.5 22.39C28.51 22.36 28.52 22.32 28.54 22.29C28.55 22.27 28.56 22.24 28.57 22.22C28.58 22.19 28.59 22.16 28.61 22.13C28.62 22.11 28.63 22.08 28.64 22.06C28.66 22.03 28.67 22 28.69 21.97C28.7 21.95 28.71 21.93 28.73 21.91C28.74 21.88 28.76 21.85 28.78 21.82C28.79 21.8 28.8 21.78 28.82 21.76C28.84 21.73 28.85 21.7 28.87 21.67C28.89 21.65 28.9 21.63 28.91 21.61C28.93 21.58 28.96 21.55 28.98 21.52C28.99 21.5 29 21.49 29.02 21.47C29.05 21.43 29.08 21.39 29.11 21.35C29.12 21.35 29.12 21.34 29.13 21.34C29.16 21.29 29.2 21.25 29.24 21.21C29.25 21.19 29.27 21.18 29.28 21.17C29.31 21.14 29.33 21.11 29.36 21.08C29.38 21.07 29.4 21.05 29.41 21.03C29.44 21.01 29.46 20.99 29.49 20.96C29.51 20.95 29.53 20.93 29.54 20.91C29.57 20.89 29.6 20.87 29.62 20.85L29.68 20.8C29.71 20.78 29.73 20.76 29.76 20.74C29.78 20.72 29.8 20.71 29.82 20.7C29.85 20.68 29.88 20.66 29.91 20.64C29.93 20.62 29.95 20.61 29.97 20.6C30 20.58 30.03 20.56 30.06 20.54C30.08 20.53 30.1 20.51 30.12 20.5C30.15 20.48 30.19 20.46 30.22 20.45C30.24 20.44 30.25 20.43 30.27 20.42C30.32 20.39 30.37 20.37 30.42 20.34C30.42 20.34 30.43 20.34 30.43 20.34C30.48 20.31 30.54 20.29 30.59 20.27C30.61 20.26 30.63 20.25 30.65 20.24C30.68 20.23 30.72 20.21 30.76 20.2C30.78 20.19 30.8 20.19 30.83 20.18C30.86 20.17 30.89 20.15 30.93 20.14C30.95 20.14 30.98 20.13 31 20.12C31.04 20.11 31.07 20.1 31.1 20.09C31.13 20.09 31.15 20.08 31.18 20.08C31.21 20.07 31.25 20.06 31.28 20.05C31.31 20.05 31.33 20.04 31.36 20.04C31.39 20.03 31.43 20.02 31.47 20.02C31.49 20.01 31.52 20.01 31.54 20.01C31.58 20 31.62 20 31.65 19.99C31.68 19.99 31.7 19.99 31.73 19.98C31.77 19.98 31.81 19.98 31.85 19.97C31.87 19.97 31.89 19.97 31.91 19.97C31.97 19.97 32.04 19.97 32.1 19.97C32.16 19.97 32.23 19.97 32.29 19.97C32.31 19.97 32.33 19.97 32.35 19.97C32.39 19.98 32.44 19.98 32.48 19.98C32.5 19.99 32.53 19.99 32.55 19.99C32.59 20 32.62 20 32.66 20.01C32.69 20.01 32.71 20.01 32.74 20.02C32.77 20.02 32.81 20.03 32.84 20.04C32.87 20.04 32.89 20.05 32.92 20.05C32.95 20.06 32.99 20.07 33.02 20.08C33.05 20.08 33.07 20.09 33.1 20.09C33.13 20.1 33.17 20.11 33.2 20.12C33.22 20.13 33.25 20.14 33.27 20.14C33.31 20.15 33.34 20.17 33.38 20.18C33.4 20.19 33.42 20.19 33.44 20.2C33.48 20.21 33.52 20.23 33.56 20.24C33.57 20.25 33.59 20.26 33.61 20.27C33.66 20.29 33.72 20.31 33.77 20.34C33.78 20.34 33.78 20.34 33.78 20.34C33.83 20.37 33.88 20.39 33.93 20.42C33.95 20.43 33.96 20.44 33.98 20.45C34.02 20.46 34.05 20.48 34.08 20.5C34.1 20.51 34.12 20.53 34.14 20.54C34.17 20.56 34.2 20.58 34.23 20.6C34.25 20.61 34.28 20.62 34.3 20.64C34.32 20.66 34.35 20.68 34.38 20.7C34.4 20.71 34.42 20.72 34.44 20.74C34.47 20.76 34.49 20.78 34.52 20.8L34.58 20.85C34.61 20.87 34.63 20.89 34.66 20.91C34.68 20.93 34.69 20.95 34.71 20.96C34.74 20.99 34.76 21.01 34.79 21.03C34.81 21.05 34.82 21.07 34.84 21.08C34.87 21.11 34.9 21.14 34.92 21.17C34.94 21.18 34.95 21.19 34.96 21.21C35 21.25 35.04 21.29 35.08 21.34C35.08 21.34 35.09 21.35 35.09 21.35C35.12 21.39 35.15 21.43 35.19 21.47C35.2 21.49 35.21 21.5 35.22 21.52C35.24 21.55 35.27 21.58 35.29 21.61C35.3 21.63 35.31 21.65 35.33 21.67C35.35 21.7 35.37 21.73 35.39 21.76C35.4 21.78 35.41 21.8 35.42 21.82C35.44 21.85 35.46 21.88 35.48 21.91C35.49 21.93 35.5 21.95 35.51 21.97C35.53 22 35.54 22.03 35.56 22.06C35.57 22.08 35.58 22.11 35.59 22.13C35.61 22.16 35.62 22.19 35.64 22.22C35.65 22.24 35.66 22.27 35.66 22.29C35.68 22.32 35.69 22.36 35.71 22.39C35.71 22.41 35.72 22.43 35.73 22.45C35.74 22.49 35.76 22.53 35.77 22.57C35.78 22.59 35.78 22.6 35.79 22.62C35.81 22.67 35.82 22.73 35.84 22.79C35.84 22.8 35.84 22.81 35.84 22.82C35.86 22.87 35.87 22.91 35.88 22.96C35.88 22.98 35.89 23 35.89 23.02C35.9 23.05 35.9 23.08 35.91 23.12L38.5 23.12C38.63 23.12 38.73 23.01 38.73 22.89L38.73 20.31L37.75 20.31L37.75 19.08L38.73 19.08L38.73 17.5C38.73 16.75 38.28 16.09 37.57 15.82L35.21 14.9L26.28 14.9L26.28 23.12ZM26.28 13.67L34.37 13.67L32.1 8.47C31.85 7.89 31.27 7.52 30.62 7.52L26.28 7.52L26.28 13.67ZM10.31 26.26C11.74 26.26 12.91 25.13 12.91 23.73C12.91 22.33 11.74 21.2 10.31 21.2C10.27 21.2 10.22 21.2 10.18 21.2C8.98 21.26 8 22.11 7.77 23.22C7.76 23.26 7.75 23.3 7.74 23.35C7.73 23.43 7.72 23.51 7.72 23.6C7.71 23.64 7.71 23.69 7.71 23.73C7.71 25.13 8.88 26.26 10.31 26.26ZM1.26 19.08L2.24 19.08L2.24 20.31L1.26 20.31L1.26 23.05C1.26 23.09 1.29 23.12 1.32 23.12L6.5 23.12C6.51 23.08 6.51 23.05 6.52 23.02C6.52 23 6.53 22.98 6.53 22.96C6.54 22.91 6.55 22.87 6.57 22.82C6.57 22.81 6.57 22.8 6.57 22.79C6.59 22.73 6.61 22.68 6.62 22.62C6.63 22.6 6.64 22.58 6.64 22.57C6.65 22.53 6.67 22.49 6.68 22.45C6.69 22.43 6.7 22.41 6.71 22.39C6.72 22.36 6.73 22.32 6.75 22.29C6.76 22.27 6.77 22.24 6.78 22.22C6.79 22.19 6.8 22.16 6.82 22.13C6.83 22.11 6.84 22.08 6.85 22.06C6.87 22.03 6.88 22 6.9 21.97C6.91 21.95 6.92 21.93 6.94 21.91C6.95 21.88 6.97 21.85 6.99 21.82C7 21.8 7.01 21.78 7.03 21.76C7.04 21.73 7.06 21.7 7.08 21.67C7.1 21.65 7.11 21.63 7.12 21.61C7.14 21.58 7.17 21.55 7.19 21.52C7.2 21.5 7.21 21.49 7.23 21.47C7.26 21.43 7.29 21.39 7.32 21.36C7.32 21.35 7.33 21.34 7.33 21.34C7.37 21.29 7.41 21.25 7.45 21.21C7.46 21.19 7.48 21.18 7.49 21.17C7.52 21.14 7.54 21.11 7.57 21.08C7.59 21.07 7.6 21.05 7.62 21.03C7.65 21.01 7.67 20.99 7.7 20.96C7.72 20.95 7.74 20.93 7.75 20.91C7.78 20.89 7.81 20.87 7.83 20.85C7.85 20.83 7.87 20.82 7.89 20.8C7.92 20.78 7.94 20.76 7.97 20.74C7.99 20.72 8.01 20.71 8.03 20.7C8.06 20.68 8.09 20.66 8.12 20.64C8.14 20.62 8.16 20.61 8.18 20.6C8.21 20.58 8.24 20.56 8.27 20.54C8.29 20.53 8.31 20.51 8.33 20.5C8.36 20.48 8.39 20.46 8.43 20.45C8.45 20.44 8.46 20.43 8.48 20.42C8.53 20.39 8.58 20.37 8.63 20.34C8.63 20.34 8.64 20.34 8.64 20.34C8.69 20.31 8.75 20.29 8.8 20.27C8.82 20.26 8.84 20.25 8.86 20.24C8.89 20.23 8.93 20.21 8.97 20.2C8.99 20.19 9.01 20.19 9.04 20.18C9.07 20.17 9.1 20.15 9.14 20.14C9.16 20.14 9.19 20.13 9.21 20.12C9.25 20.11 9.28 20.1 9.31 20.09C9.34 20.09 9.36 20.08 9.39 20.08C9.42 20.07 9.46 20.06 9.49 20.05C9.52 20.05 9.54 20.04 9.57 20.04C9.6 20.03 9.64 20.02 9.67 20.02C9.7 20.01 9.72 20.01 9.75 20.01C9.79 20 9.82 20 9.86 19.99C9.89 19.99 9.91 19.99 9.93 19.98C9.98 19.98 10.02 19.98 10.06 19.97C10.08 19.97 10.1 19.97 10.12 19.97C10.18 19.97 10.25 19.97 10.31 19.97C10.37 19.97 10.44 19.97 10.5 19.97C10.52 19.97 10.54 19.97 10.56 19.97C10.6 19.98 10.64 19.98 10.69 19.98C10.71 19.99 10.73 19.99 10.76 19.99C10.8 20 10.83 20 10.87 20.01C10.9 20.01 10.92 20.01 10.95 20.02C10.98 20.02 11.02 20.03 11.05 20.04C11.08 20.04 11.1 20.05 11.13 20.05C11.16 20.06 11.2 20.07 11.23 20.08C11.26 20.08 11.28 20.09 11.31 20.09C11.34 20.1 11.38 20.11 11.41 20.12C11.43 20.13 11.46 20.14 11.48 20.14C11.52 20.15 11.55 20.17 11.59 20.18C11.61 20.19 11.63 20.19 11.65 20.2C11.69 20.21 11.73 20.23 11.77 20.24C11.78 20.25 11.8 20.26 11.82 20.27C11.87 20.29 11.93 20.31 11.98 20.34C11.99 20.34 11.99 20.34 11.99 20.34C12.04 20.37 12.09 20.39 12.14 20.42C12.16 20.43 12.17 20.44 12.19 20.45C12.23 20.46 12.26 20.48 12.29 20.5C12.31 20.51 12.33 20.53 12.35 20.54C12.38 20.56 12.41 20.58 12.44 20.6C12.46 20.61 12.48 20.62 12.51 20.64C12.53 20.66 12.56 20.68 12.59 20.7C12.61 20.71 12.63 20.72 12.65 20.74C12.68 20.76 12.7 20.78 12.73 20.8C12.75 20.82 12.77 20.83 12.79 20.85C12.81 20.87 12.84 20.89 12.87 20.91C12.88 20.93 12.9 20.95 12.92 20.96C12.95 20.99 12.97 21.01 13 21.03C13.02 21.05 13.03 21.07 13.05 21.08C13.08 21.11 13.11 21.14 13.13 21.17C13.15 21.18 13.16 21.19 13.17 21.21C13.21 21.25 13.25 21.29 13.29 21.34C13.29 21.34 13.3 21.35 13.3 21.35C13.33 21.39 13.36 21.43 13.39 21.47C13.41 21.49 13.42 21.5 13.43 21.52C13.45 21.55 13.48 21.58 13.5 21.61C13.51 21.63 13.52 21.65 13.54 21.67C13.56 21.7 13.58 21.73 13.59 21.76C13.61 21.78 13.62 21.8 13.63 21.82C13.65 21.85 13.67 21.88 13.68 21.91C13.7 21.93 13.71 21.95 13.72 21.97C13.74 22 13.75 22.03 13.77 22.06C13.78 22.08 13.79 22.11 13.8 22.13C13.82 22.16 13.83 22.19 13.84 22.22C13.85 22.24 13.86 22.27 13.87 22.29C13.89 22.32 13.9 22.36 13.92 22.39C13.92 22.41 13.93 22.43 13.94 22.45C13.95 22.49 13.97 22.53 13.98 22.57C13.99 22.59 13.99 22.6 14 22.62C14.01 22.67 14.03 22.73 14.05 22.79C14.05 22.8 14.05 22.81 14.05 22.82C14.07 22.86 14.08 22.91 14.09 22.96C14.09 22.98 14.1 23 14.1 23.02C14.11 23.05 14.11 23.08 14.12 23.12L25.01 23.12L25.01 4.83C25.01 4.49 25.3 4.22 25.64 4.22L34.76 4.22C34.78 4.22 34.82 4.22 34.85 4.16C34.88 4.11 34.86 4.07 34.85 4.06L32.88 1.17C32.68 0.89 32.37 0.73 32.02 0.73L15.56 0.73C15.46 0.73 15.38 0.76 15.31 0.82L14.27 1.84C13.97 2.14 13.56 2.3 13.13 2.3L2.28 2.3C1.71 2.3 1.26 2.75 1.26 3.3L1.26 19.08Z" fill="#101828" fill-opacity="1.000000" fill-rule="nonzero"/>
	<path id="Vector" d="M17.6 5.79L21.58 5.79C22.39 5.79 23.05 6.43 23.05 7.22L23.05 20.38C23.05 20.72 22.76 21 22.42 21L16.77 21C16.42 21 16.14 20.72 16.14 20.38L16.14 7.22C16.14 6.43 16.79 5.79 17.6 5.79ZM17.4 19.77L21.78 19.77L21.78 12.53L17.4 12.53L17.4 19.77ZM17.4 11.3L21.78 11.3L21.78 7.22C21.78 7.11 21.69 7.02 21.58 7.02L17.6 7.02C17.49 7.02 17.4 7.11 17.4 7.22L17.4 11.3Z" fill="#101828" fill-opacity="1.000000" fill-rule="nonzero"/>
</symbol>
<symbol id="alcove" width="40.000000" height="28.000000" viewBox="0 0 40 28" fill="none" xmlns="http://www.w3.org/2000/svg" xmlns:xlink="http://www.w3.org/1999/xlink">
	<desc>
			Created with Pixso.
	</desc>
	<defs/>
	<path id="Vector" d="M2.28 1.07L13.13 1.07C13.23 1.07 13.31 1.03 13.38 0.97L14.42 -0.05C14.72 -0.34 15.13 -0.5 15.56 -0.5L32.02 -0.5C32.79 -0.5 33.5 -0.13 33.92 0.49L35.9 3.38C36.18 3.79 36.2 4.31 35.97 4.75C35.73 5.18 35.27 5.45 34.76 5.45L26.28 5.45L26.28 6.29L30.62 6.29C31.77 6.29 32.81 6.95 33.26 7.99L35.81 13.81L38.04 14.68C39.23 15.14 40 16.25 40 17.5L40 22.89C40 23.69 39.32 24.35 38.5 24.35L35.91 24.35C35.61 26.13 34.01 27.5 32.1 27.5C30.19 27.5 28.6 26.13 28.29 24.35L14.12 24.35C13.81 26.13 12.22 27.5 10.31 27.5C8.4 27.5 6.81 26.13 6.5 24.35L1.32 24.35C0.59 24.35 0 23.76 0 23.05L0 3.3C0 2.07 1.02 1.07 2.28 1.07ZM32.1 26.26C33.53 26.26 34.7 25.13 34.7 23.73C34.7 22.33 33.53 21.2 32.1 21.2C30.67 21.2 29.5 22.33 29.5 23.73C29.5 25.13 30.67 26.26 32.1 26.26ZM26.28 23.12L28.29 23.12C28.3 23.08 28.31 23.05 28.31 23.02C28.32 23 28.32 22.98 28.32 22.96C28.33 22.91 28.35 22.87 28.36 22.82C28.36 22.81 28.36 22.8 28.36 22.79C28.38 22.73 28.4 22.67 28.41 22.62C28.42 22.6 28.43 22.59 28.43 22.57C28.44 22.53 28.46 22.49 28.47 22.45C28.48 22.43 28.49 22.41 28.5 22.39C28.51 22.36 28.52 22.32 28.54 22.29C28.55 22.27 28.56 22.24 28.57 22.22C28.58 22.19 28.59 22.16 28.61 22.13C28.62 22.11 28.63 22.08 28.64 22.06C28.66 22.03 28.67 22 28.69 21.97C28.7 21.95 28.71 21.93 28.73 21.91C28.74 21.88 28.76 21.85 28.78 21.82C28.79 21.8 28.8 21.78 28.82 21.76C28.84 21.73 28.85 21.7 28.87 21.67C28.89 21.65 28.9 21.63 28.91 21.61C28.93 21.58 28.96 21.55 28.98 21.52C28.99 21.5 29 21.49 29.02 21.47C29.05 21.43 29.08 21.39 29.11 21.35C29.12 21.35 29.12 21.34 29.13 21.34C29.16 21.29 29.2 21.25 29.24 21.21C29.25 21.19 29.27 21.18 29.28 21.17C29.31 21.14 29.33 21.11 29.36 21.08C29.38 21.07 29.4 21.05 29.41 21.03C29.44 21.01 29.46 20.99 29.49 20.96C29.51 20.95 29.53 20.93 29.54 20.91C29.57 20.89 29.6 20.87 29.62 20.85L29.68 20.8C29.71 20.78 29.73 20.76 29.76 20.74C29.78 20.72 29.8 20.71 29.82 20.7C29.85 20.68 29.88 20.66 29.91 20.64C29.93 20.62 29.95 20.61 29.97 20.6C30 20.58 30.03 20.56 30.06 20.54C30.08 20.53 30.1 20.51 30.12 20.5C30.15 20.48 30.19 20.46 30.22 20.45C30.24 20.44 30.25 20.43 30.27 20.42C30.32 20.39 30.37 20.37 30.42 20.34C30.42 20.34 30.43 20.34 30.43 20.34C30.48 20.31 30.54 20.29 30.59 20.27C30.61 20.26 30.63 20.25 30.65 20.24C30.68 20.23 30.72 20.21 30.76 20.2C30.78 20.19 30.8 20.19 30.83 20.18C30.86 20.17 30.89 20.15 30.93 20.14C30.95 20.14 30.98 20.13 31 20.12C31.04 20.11 31.07 20.1 31.1 20.09C31.13 20.09 31.15 20.08 31.18 20.08C31.21 20.07 31.25 20.06 31.28 20.05C31.31 20.05 31.33 20.04 31.36 20.04C31.39 20.03 31.43 20.02 31.47 20.02C31.49 20.01 31.52 20.01 31.54 20.01C31.58 20 31.62 20 31.65 19.99C31.68 19.99 31.7 19.99 31.73 19.98C31.77 19.98 31.81 19.98 31.85 19.97C31.87 19.97 31.89 19.97 31.91 19.97C31.97 19.97 32.04 19.97 32.1 19.97C32.16 19.97 32.23 19.97 32.29 19.97C32.31 19.97 32.33 19.97 32.35 19.97C32.39 19.98 32.44 19.98 32.48 19.98C32.5 19.99 32.53 19.99 32.55 19.99C32.59 20 32.62 20 32.66 20.01C32.69 20.01 32.71 20.01 32.74 20.02C32.77 20.02 32.81 20.03 32.84 20.04C32.87 20.04 32.89 20.05 32.92 20.05C32.95 20.06 32.99 20.07 33.02 20.08C33.05 20.08 33.07 20.09 33.1 20.09C33.13 20.1 33.17 20.11 33.2 20.12C33.22 20.13 33.25 20.14 33.27 20.14C33.31 20.15 33.34 20.17 33.38 20.18C33.4 20.19 33.42 20.19 33.44 20.2C33.48 20.21 33.52 20.23 33.56 20.24C33.57 20.25 33.59 20.26 33.61 20.27C33.66 20.29 33.72 20.31 33.77 20.34C33.78 20.34 33.78 20.34 33.78 20.34C33.83 20.37 33.88 20.39 33.93 20.42C33.95 20.43 33.96 20.44 33.98 20.45C34.02 20.46 34.05 20.48 34.08 20.5C34.1 20.51 34.12 20.53 34.14 20.54C34.17 20.56 34.2 20.58 34.23 20.6C34.25 20.61 34.28 20.62 34.3 20.64C34.32 20.66 34.35 20.68 34.38 20.7C34.4 20.71 34.42 20.72 34.44 20.74C34.47 20.76 34.49 20.78 34.52 20.8L34.58 20.85C34.61 20.87 34.63 20.89 34.66 20.91C34.68 20.93 34.69 20.95 34.71 20.96C34.74 20.99 34.76 21.01 34.79 21.03C34.81 21.05 34.82 21.07 34.84 21.08C34.87 21.11 34.9 21.14 34.92 21.17C34.94 21.18 34.95 21.19 34.96 21.21C35 21.25 35.04 21.29 35.08 21.34C35.08 21.34 35.09 21.35 35.09 21.35C35.12 21.39 35.15 21.43 35.19 21.47C35.2 21.49 35.21 21.5 35.22 21.52C35.24 21.55 35.27 21.58 35.29 21.61C35.3 21.63 35.31 21.65 35.33 21.67C35.35 21.7 35.37 21.73 35.39 21.76C35.4 21.78 35.41 21.8 35.42 21.82C35.44 21.85 35.46 21.88 35.48 21.91C35.49 21.93 35.5 21.95 35.51 21.97C35.53 22 35.54 22.03 35.56 22.06C35.57 22.08 35.58 22.11 35.59 22.13C35.61 22.16 35.62 22.19 35.64 22.22C35.65 22.24 35.66 22.27 35.66 22.29C35.68 22.32 35.69 22.36 35.71 22.39C35.71 22.41 35.72 22.43 35.73 22.45C35.74 22.49 35.76 22.53 35.77 22.57C35.78 22.59 35.78 22.6 35.79 22.62C35.81 22.67 35.82 22.73 35.84 22.79C35.84 22.8 35.84 22.81 35.84 22.82C35.86 22.87 35.87 22.91 35.88 22.96C35.88 22.98 35.89 23 35.89 23.02C35.9 23.05 35.9 23.08 35.91 23.12L38.5 23.12C38.63 23.12 38.73 23.01 38.73 22.89L38.73 20.31L37.75 20.31L37.75 19.08L38.73 19.08L38.73 17.5C38.73 16.75 38.28 16.09 37.57 15.82L35.21 14.9L26.28 14.9L26.28 23.12ZM26.28 13.67L34.37 13.67L32.1 8.47C31.85 7.89 31.27 7.52 30.62 7.52L26.28 7.52L26.28 13.67ZM10.31 26.26C11.74 26.26 12.91 25.13 12.91 23.73C12.91 22.33 11.74 21.2 10.31 21.2C10.27 21.2 10.22 21.2 10.18 21.2C8.98 21.26 8 22.11 7.77 23.22C7.76 23.26 7.75 23.3 7.74 23.35C7.73 23.43 7.72 23.51 7.72 23.6C7.71 23.64 7.71 23.69 7.71 23.73C7.71 25.13 8.88 26.26 10.31 26.26ZM1.26 19.08L2.24 19.08L2.24 20.31L1.26 20.31L1.26 23.05C1.26 23.09 1.29 23.12 1.32 23.12L6.5 23.12C6.51 23.08 6.51 23.05 6.52 23.02C6.52 23 6.53 22.98 6.53 22.96C6.54 22.91 6.55 22.87 6.57 22.82C6.57 22.81 6.57 22.8 6.57 22.79C6.59 22.73 6.61 22.68 6.62 22.62C6.63 22.6 6.64 22.58 6.64 22.57C6.65 22.53 6.67 22.49 6.68 22.45C6.69 22.43 6.7 22.41 6.71 22.39C6.72 22.36 6.73 22.32 6.75 22.29C6.76 22.27 6.77 22.24 6.78 22.22C6.79 22.19 6.8 22.16 6.82 22.13C6.83 22.11 6.84 22.08 6.85 22.06C6.87 22.03 6.88 22 6.9 21.97C6.91 21.95 6.92 21.93 6.94 21.91C6.95 21.88 6.97 21.85 6.99 21.82C7 21.8 7.01 21.78 7.03 21.76C7.04 21.73 7.06 21.7 7.08 21.67C7.1 21.65 7.11 21.63 7.12 21.61C7.14 21.58 7.17 21.55 7.19 21.52C7.2 21.5 7.21 21.49 7.23 21.47C7.26 21.43 7.29 21.39 7.32 21.36C7.32 21.35 7.33 21.34 7.33 21.34C7.37 21.29 7.41 21.25 7.45 21.21C7.46 21.19 7.48 21.18 7.49 21.17C7.52 21.14 7.54 21.11 7.57 21.08C7.59 21.07 7.6 21.05 7.62 21.03C7.65 21.01 7.67 20.99 7.7 20.96C7.72 20.95 7.74 20.93 7.75 20.91C7.78 20.89 7.81 20.87 7.83 20.85C7.85 20.83 7.87 20.82 7.89 20.8C7.92 20.78 7.94 20.76 7.97 20.74C7.99 20.72 8.01 20.71 8.03 20.7C8.06 20.68 8.09 20.66 8.12 20.64C8.14 20.62 8.16 20.61 8.18 20.6C8.21 20.58 8.24 20.56 8.27 20.54C8.29 20.53 8.31 20.51 8.33 20.5C8.36 20.48 8.39 20.46 8.43 20.45C8.45 20.44 8.46 20.43 8.48 20.42C8.53 20.39 8.58 20.37 8.63 20.34C8.63 20.34 8.64 20.34 8.64 20.34C8.69 20.31 8.75 20.29 8.8 20.27C8.82 20.26 8.84 20.25 8.86 20.24C8.89 20.23 8.93 20.21 8.97 20.2C8.99 20.19 9.01 20.19 9.04 20.18C9.07 20.17 9.1 20.15 9.14 20.14C9.16 20.14 9.19 20.13 9.21 20.12C9.25 20.11 9.28 20.1 9.31 20.09C9.34 20.09 9.36 20.08 9.39 20.08C9.42 20.07 9.46 20.06 9.49 20.05C9.52 20.05 9.54 20.04 9.57 20.04C9.6 20.03 9.64 20.02 9.67 20.02C9.7 20.01 9.72 20.01 9.75 20.01C9.79 20 9.82 20 9.86 19.99C9.89 19.99 9.91 19.99 9.93 19.98C9.98 19.98 10.02 19.98 10.06 19.97C10.08 19.97 10.1 19.97 10.12 19.97C10.18 19.97 10.25 19.97 10.31 19.97C10.37 19.97 10.44 19.97 10.5 19.97C10.52 19.97 10.54 19.97 10.56 19.97C10.6 19.98 10.64 19.98 10.69 19.98C10.71 19.99 10.73 19.99 10.76 19.99C10.8 20 10.83 20 10.87 20.01C10.9 20.01 10.92 20.01 10.95 20.02C10.98 20.02 11.02 20.03 11.05 20.04C11.08 20.04 11.1 20.05 11.13 20.05C11.16 20.06 11.2 20.07 11.23 20.08C11.26 20.08 11.28 20.09 11.31 20.09C11.34 20.1 11.38 20.11 11.41 20.12C11.43 20.13 11.46 20.14 11.48 20.14C11.52 20.15 11.55 20.17 11.59 20.18C11.61 20.19 11.63 20.19 11.65 20.2C11.69 20.21 11.73 20.23 11.77 20.24C11.78 20.25 11.8 20.26 11.82 20.27C11.87 20.29 11.93 20.31 11.98 20.34C11.99 20.34 11.99 20.34 11.99 20.34C12.04 20.37 12.09 20.39 12.14 20.42C12.16 20.43 12.17 20.44 12.19 20.45C12.23 20.46 12.26 20.48 12.29 20.5C12.31 20.51 12.33 20.53 12.35 20.54C12.38 20.56 12.41 20.58 12.44 20.6C12.46 20.61 12.48 20.62 12.51 20.64C12.53 20.66 12.56 20.68 12.59 20.7C12.61 20.71 12.63 20.72 12.65 20.74C12.68 20.76 12.7 20.78 12.73 20.8C12.75 20.82 12.77 20.83 12.79 20.85C12.81 20.87 12.84 20.89 12.87 20.91C12.88 20.93 12.9 20.95 12.92 20.96C12.95 20.99 12.97 21.01 13 21.03C13.02 21.05 13.03 21.07 13.05 21.08C13.08 21.11 13.11 21.14 13.13 21.17C13.15 21.18 13.16 21.19 13.17 21.21C13.21 21.25 13.25 21.29 13.29 21.34C13.29 21.34 13.3 21.35 13.3 21.35C13.33 21.39 13.36 21.43 13.39 21.47C13.41 21.49 13.42 21.5 13.43 21.52C13.45 21.55 13.48 21.58 13.5 21.61C13.51 21.63 13.52 21.65 13.54 21.67C13.56 21.7 13.58 21.73 13.59 21.76C13.61 21.78 13.62 21.8 13.63 21.82C13.65 21.85 13.67 21.88 13.68 21.91C13.7 21.93 13.71 21.95 13.72 21.97C13.74 22 13.75 22.03 13.77 22.06C13.78 22.08 13.79 22.11 13.8 22.13C13.82 22.16 13.83 22.19 13.84 22.22C13.85 22.24 13.86 22.27 13.87 22.29C13.89 22.32 13.9 22.36 13.92 22.39C13.92 22.41 13.93 22.43 13.94 22.45C13.95 22.49 13.97 22.53 13.98 22.57C13.99 22.59 13.99 22.6 14 22.62C14.01 22.67 14.03 22.73 14.05 22.79C14.05 22.8 14.05 22.81 14.05 22.82C14.07 22.86 14.08 22.91 14.09 22.96C14.09 22.98 14.1 23 14.1 23.02C14.11 23.05 14.11 23.08 14.12 23.12L25.01 23.12L25.01 4.83C25.01 4.49 25.3 4.22 25.64 4.22L34.76 4.22C34.78 4.22 34.82 4.22 34.85 4.16C34.88 4.11 34.86 4.07 34.85 4.06L32.88 1.17C32.68 0.89 32.37 0.73 32.02 0.73L15.56 0.73C15.46 0.73 15.38 0.76 15.31 0.82L14.27 1.84C13.97 2.14 13.56 2.3 13.13 2.3L2.28 2.3C1.71 2.3 1.26 2.75 1.26 3.3L1.26 19.08Z" fill="#101828" fill-opacity="1.000000" fill-rule="nonzero"/>
	<path id="Vector" d="M17.6 5.79L21.58 5.79C22.39 5.79 23.05 6.43 23.05 7.22L23.05 20.38C23.05 20.72 22.76 21 22.42 21L16.77 21C16.42 21 16.14 20.72 16.14 20.38L16.14 7.22C16.14 6.43 16.79 5.79 17.6 5.79ZM17.4 19.77L21.78 19.77L21.78 12.53L17.4 12.53L17.4 19.77ZM17.4 11.3L21.78 11.3L21.78 7.22C21.78 7.11 21.69 7.02 21.58 7.02L17.6 7.02C17.49 7.02 17.4 7.11 17.4 7.22L17.4 11.3L17.4 11.3ZM4.84 5.79L12.55 5.79C13.44 5.79 14.17 6.5 14.17 7.37L14.17 10.96C14.17 11.83 13.44 12.54 12.55 12.54L4.84 12.54C3.95 12.54 3.22 11.83 3.22 10.96L3.22 7.37C3.22 6.5 3.95 5.79 4.84 5.79ZM4.48 10.96C4.48 11.15 4.64 11.3 4.84 11.3L12.55 11.3C12.75 11.3 12.91 11.15 12.91 10.96L12.91 7.37C12.91 7.18 12.75 7.02 12.55 7.02L4.84 7.02C4.64 7.02 4.48 7.18 4.48 7.37L4.48 10.96L4.48 10.96Z" fill="#101828" fill-opacity="1.000000" fill-rule="nonzero"/>
</symbol>
</svg>