<svg>
<symbol id="heart" width="24.000000" height="24.000000" viewBox="0 0 24 24" fill="none" xmlns="http://www.w3.org/2000/svg" xmlns:xlink="http://www.w3.org/1999/xlink">
	<desc>
			Created with Pixso.
	</desc>
	<defs>
		<clipPath id="clip58_220">
			<rect id="Property 1=Default" width="24.000000" height="24.000000" fill="white" fill-opacity="0"/>
		</clipPath>
	</defs>
	<rect id="Property 1=Default" width="24.000000" height="24.000000" fill="#FFFFFF" fill-opacity="0"/>
	<g clip-path="url(#clip58_220)">
		<path d="M19.05 3.41C18.38 3.14 17.67 2.99 16.95 2.99C16.22 2.99 15.51 3.14 14.84 3.41C14.17 3.69 13.57 4.09 13.06 4.61L12 5.67L10.94 4.61C9.9 3.57 8.5 2.99 7.05 2.99C5.59 2.99 4.19 3.57 3.16 4.61C2.12 5.64 1.54 7.04 1.54 8.5C1.54 9.95 2.12 11.35 3.16 12.39L4.22 13.45L12 21.23L19.78 13.45L20.84 12.39C21.35 11.87 21.75 11.27 22.03 10.6C22.3 9.93 22.45 9.22 22.45 8.5C22.45 7.77 22.3 7.06 22.03 6.39C21.75 5.72 21.35 5.12 20.84 4.61C20.32 4.09 19.72 3.69 19.05 3.41Z" stroke="#101828" stroke-opacity="1.000000" stroke-width="2.300000" stroke-linejoin="round"/>
	</g>
</symbol>
<symbol id='heart-red' width="24.000000" height="24.000000" viewBox="0 0 24 24" fill="none" xmlns="http://www.w3.org/2000/svg" xmlns:xlink="http://www.w3.org/1999/xlink">
	<desc>
			Created with Pixso.
	</desc>
	<defs>
		<clipPath id="clip58_222">
			<rect id="Property 1=pressed" width="24.000000" height="24.000000" fill="white" fill-opacity="0"/>
		</clipPath>
	</defs>
	<rect id="Property 1=pressed" width="24.000000" height="24.000000" fill="#FFFFFF" fill-opacity="0"/>
	<g clip-path="url(#clip58_222)">
		<path id="Vector" d="M20.84 4.61C20.32 4.09 19.72 3.69 19.05 3.41C18.38 3.14 17.67 2.99 16.95 2.99C16.22 2.99 15.51 3.14 14.84 3.41C14.17 3.69 13.57 4.09 13.06 4.61L12 5.67L10.94 4.61C9.9 3.57 8.5 2.99 7.05 2.99C5.59 2.99 4.19 3.57 3.16 4.61C2.12 5.64 1.54 7.04 1.54 8.5C1.54 9.95 2.12 11.35 3.16 12.39L4.22 13.45L12 21.23L19.78 13.45L20.84 12.39C21.35 11.87 21.75 11.27 22.03 10.6C22.3 9.93 22.45 9.22 22.45 8.5C22.45 7.77 22.3 7.06 22.03 6.39C21.75 5.72 21.35 5.12 20.84 4.61Z" fill="#E44848" fill-opacity="1.000000" fill-rule="nonzero"/>
		<path id="Vector" d="M19.05 3.41C18.38 3.14 17.67 2.99 16.95 2.99C16.22 2.99 15.51 3.14 14.84 3.41C14.17 3.69 13.57 4.09 13.06 4.61L12 5.67L10.94 4.61C9.9 3.57 8.5 2.99 7.05 2.99C5.59 2.99 4.19 3.57 3.16 4.61C2.12 5.64 1.54 7.04 1.54 8.5C1.54 9.95 2.12 11.35 3.16 12.39L4.22 13.45L12 21.23L19.78 13.45L20.84 12.39C21.35 11.87 21.75 11.27 22.03 10.6C22.3 9.93 22.45 9.22 22.45 8.5C22.45 7.77 22.3 7.06 22.03 6.39C21.75 5.72 21.35 5.12 20.84 4.61C20.32 4.09 19.72 3.69 19.05 3.41Z" stroke="#E44848" stroke-opacity="1.000000" stroke-width="2.300000" stroke-linejoin="round"/>
	</g>
</symbol>
<symbol id="star" width="15.000000" height="14.000000" viewBox="0 0 15 14" fill="none" xmlns="http://www.w3.org/2000/svg" xmlns:xlink="http://www.w3.org/1999/xlink">
	<desc>
			Created with Pixso.
	</desc>
	<defs/>
	<path id="Rating" d="M6.55 -0.17L4.66 3.41C4.59 3.55 4.46 3.64 4.31 3.67L0.32 4.36C-0.08 4.43 -0.23 4.91 0.05 5.2L2.87 8.1C2.98 8.22 3.03 8.37 3 8.52L2.43 12.53C2.37 12.93 2.78 13.23 3.14 13.05L6.77 11.26C6.91 11.2 7.08 11.2 7.22 11.26L10.85 13.05C11.21 13.23 11.62 12.93 11.56 12.53L10.99 8.52C10.96 8.37 11.01 8.22 11.12 8.1L13.94 5.2C14.22 4.91 14.07 4.43 13.67 4.36L9.68 3.67C9.53 3.64 9.4 3.55 9.33 3.41L7.44 -0.17C7.25 -0.52 6.74 -0.52 6.55 -0.17Z" fill="#FFC531" fill-opacity="1.000000" fill-rule="evenodd"/>
	<path id="Rating" d="M4.66 3.41C4.59 3.55 4.46 3.64 4.31 3.67L0.32 4.36C-0.08 4.43 -0.23 4.91 0.05 5.2L2.87 8.1C2.98 8.22 3.03 8.37 3 8.52L2.43 12.53C2.37 12.93 2.78 13.23 3.14 13.05L6.77 11.26C6.91 11.2 7.08 11.2 7.22 11.26L10.85 13.05C11.21 13.23 11.62 12.93 11.56 12.53L10.99 8.52C10.96 8.37 11.01 8.22 11.12 8.1L13.94 5.2C14.22 4.91 14.07 4.43 13.67 4.36L9.68 3.67C9.53 3.64 9.4 3.55 9.33 3.41L7.44 -0.17C7.25 -0.52 6.74 -0.52 6.55 -0.17L4.66 3.41ZM5.73 3.97C5.48 4.44 5.03 4.76 4.51 4.85L1.83 5.32L3.73 7.27C4.1 7.65 4.27 8.17 4.19 8.69L3.8 11.39L6.24 10.19C6.72 9.95 7.27 9.95 7.75 10.19L10.19 11.39L9.8 8.69C9.72 8.17 9.89 7.65 10.26 7.27L12.16 5.32L9.48 4.85C8.96 4.76 8.51 4.44 8.26 3.97L7 1.57L5.73 3.97Z" fill="#FFC531" fill-opacity="1.000000" fill-rule="evenodd"/>
</symbol>
<symbol id="location" width="16.000000" height="16.000000" viewBox="0 0 16 16" fill="none" xmlns="http://www.w3.org/2000/svg" xmlns:xlink="http://www.w3.org/1999/xlink">
	<desc>
			Created with Pixso.
	</desc>
	<defs>
		<clipPath id="clip45_230">
			<rect id="map-pin" width="16.000000" height="16.000000" fill="white" fill-opacity="0"/>
		</clipPath>
	</defs>
	<rect id="map-pin" width="16.000000" height="16.000000" fill="#FFFFFF" fill-opacity="0"/>
	<g clip-path="url(#clip45_230)">
		<path id="Vector" d="M8 15.33C8 15.33 2 11.33 2 6.66C2 5.07 2.63 3.54 3.75 2.42C4.88 1.29 6.4 0.66 8 0.66C9.59 0.66 11.11 1.29 12.24 2.42C13.36 3.54 14 5.07 14 6.66C14 11.33 8 15.33 8 15.33Z" stroke="#101828" stroke-opacity="1.000000" stroke-width="1.300000" stroke-linejoin="round"/>
		<path id="Vector" d="M8 8.66C6.89 8.66 6 7.77 6 6.66C6 5.56 6.89 4.66 8 4.66C9.1 4.66 10 5.56 10 6.66C10 7.77 9.1 8.66 8 8.66Z" stroke="#101828" stroke-opacity="1.000000" stroke-width="1.300000" stroke-linejoin="round"/>
	</g>
</symbol>
</svg>
