<svg>
<symbol id="heart" width="24.000000" height="24.000000" viewBox="0 0 24 24" fill="none" xmlns="http://www.w3.org/2000/svg" xmlns:xlink="http://www.w3.org/1999/xlink">
	<desc>
			Created with Pixso.
	</desc>
	<defs>
		<clipPath id="clip58_220">
			<rect id="Property 1=Default" width="24.000000" height="24.000000" fill="white" fill-opacity="0"/>
		</clipPath>
	</defs>
	<rect id="Property 1=Default" width="24.000000" height="24.000000" fill="#FFFFFF" fill-opacity="0"/>
	<g clip-path="url(#clip58_220)">
		<path d="M19.05 3.41C18.38 3.14 17.67 2.99 16.95 2.99C16.22 2.99 15.51 3.14 14.84 3.41C14.17 3.69 13.57 4.09 13.06 4.61L12 5.67L10.94 4.61C9.9 3.57 8.5 2.99 7.05 2.99C5.59 2.99 4.19 3.57 3.16 4.61C2.12 5.64 1.54 7.04 1.54 8.5C1.54 9.95 2.12 11.35 3.16 12.39L4.22 13.45L12 21.23L19.78 13.45L20.84 12.39C21.35 11.87 21.75 11.27 22.03 10.6C22.3 9.93 22.45 9.22 22.45 8.5C22.45 7.77 22.3 7.06 22.03 6.39C21.75 5.72 21.35 5.12 20.84 4.61C20.32 4.09 19.72 3.69 19.05 3.41Z" stroke="#101828" stroke-opacity="1.000000" stroke-width="2.300000" stroke-linejoin="round"/>
	</g>
</symbol>
<symbol id='heart-red' width="24.000000" height="24.000000" viewBox="0 0 24 24" fill="none" xmlns="http://www.w3.org/2000/svg" xmlns:xlink="http://www.w3.org/1999/xlink">
	<desc>
			Created with Pixso.
	</desc>
	<defs>
		<clipPath id="clip58_222">
			<rect id="Property 1=pressed" width="24.000000" height="24.000000" fill="white" fill-opacity="0"/>
		</clipPath>
	</defs>
	<rect id="Property 1=pressed" width="24.000000" height="24.000000" fill="#FFFFFF" fill-opacity="0"/>
	<g clip-path="url(#clip58_222)">
		<path id="Vector" d="M20.84 4.61C20.32 4.09 19.72 3.69 19.05 3.41C18.38 3.14 17.67 2.99 16.95 2.99C16.22 2.99 15.51 3.14 14.84 3.41C14.17 3.69 13.57 4.09 13.06 4.61L12 5.67L10.94 4.61C9.9 3.57 8.5 2.99 7.05 2.99C5.59 2.99 4.19 3.57 3.16 4.61C2.12 5.64 1.54 7.04 1.54 8.5C1.54 9.95 2.12 11.35 3.16 12.39L4.22 13.45L12 21.23L19.78 13.45L20.84 12.39C21.35 11.87 21.75 11.27 22.03 10.6C22.3 9.93 22.45 9.22 22.45 8.5C22.45 7.77 22.3 7.06 22.03 6.39C21.75 5.72 21.35 5.12 20.84 4.61Z" fill="#E44848" fill-opacity="1.000000" fill-rule="nonzero"/>
		<path id="Vector" d="M19.05 3.41C18.38 3.14 17.67 2.99 16.95 2.99C16.22 2.99 15.51 3.14 14.84 3.41C14.17 3.69 13.57 4.09 13.06 4.61L12 5.67L10.94 4.61C9.9 3.57 8.5 2.99 7.05 2.99C5.59 2.99 4.19 3.57 3.16 4.61C2.12 5.64 1.54 7.04 1.54 8.5C1.54 9.95 2.12 11.35 3.16 12.39L4.22 13.45L12 21.23L19.78 13.45L20.84 12.39C21.35 11.87 21.75 11.27 22.03 10.6C22.3 9.93 22.45 9.22 22.45 8.5C22.45 7.77 22.3 7.06 22.03 6.39C21.75 5.72 21.35 5.12 20.84 4.61C20.32 4.09 19.72 3.69 19.05 3.41Z" stroke="#E44848" stroke-opacity="1.000000" stroke-width="2.300000" stroke-linejoin="round"/>
	</g>
</symbol>
</svg>
